<?xml version="1.0" encoding="utf-8"?>
<!-- Generator: Adobe Illustrator 16.0.0, SVG Export Plug-In . SVG Version: 6.00 Build 0)  -->
<!DOCTYPE svg PUBLIC "-//W3C//DTD SVG 1.1//EN" "http://www.w3.org/Graphics/SVG/1.1/DTD/svg11.dtd">
<svg version="1.1" id="Capa_1" xmlns="http://www.w3.org/2000/svg" xmlns:xlink="http://www.w3.org/1999/xlink" x="0px" y="0px"
	 width="969.0966797px" height="1058px" viewBox="0 0 969.0966797 1058" enable-background="new 0 0 969.0966797 1058"
	 xml:space="preserve">
<path fill="#DD0A90" d="M361.6103516,368.8369141c-8.9267578,16.4658203-5.2421875,35.7216797,8.2255859,43.0205078
	c13.46875,7.2949219,31.6113281-0.1328125,40.5322266-16.5976563c8.9199219-16.4570313,5.2392578-35.71875-8.2265625-43.0185547
	C388.6748047,344.9443359,370.5273438,352.3759766,361.6103516,368.8369141z"/>
<path fill="#DD0A90" d="M284.3388672,341.0644531c-9.7910156,18.0625-7.5742188,38.2050781,4.9492188,44.9902344
	c12.5244141,6.7822266,30.6025391-2.3564453,40.3876953-20.421875c9.7910156-18.0566406,7.5751953-38.1972656-4.9453125-44.984375
	C312.2080078,313.8613281,294.1259766,323.0048828,284.3388672,341.0644531z"/>
<path fill="#DD0A90" d="M224.0673828,317.4946289c-8.4238281,15.5405273-7.9335938,32.1040039,1.09375,37.0024414
	c9.0351563,4.8876953,23.1777344-3.7460938,31.5996094-19.2910156c8.4238281-15.5380859,7.9316406-32.1015625-1.0986328-36.9931641
	C246.6337891,293.3139648,232.4902344,301.9472656,224.0673828,317.4946289z"/>
<path fill="#DD0A90" d="M176.7158203,301.6821289c-7.8505859,14.4760742-9.1259766,28.9692383-2.8583984,32.3754883
	c6.2802734,3.3935547,17.7216797-5.5908203,25.5673828-20.0722656c7.8447266-14.4829102,9.125-28.9736328,2.8535156-32.371582
	C196.0048828,278.2109375,184.5595703,287.1928711,176.7158203,301.6821289z"/>
<path fill="#DD0A90" d="M143.1132813,291.0175781c-7.5947266,12.597168-10.9169922,24.5224609-7.4160156,26.640625
	c3.5097656,2.1064453,12.5087891-6.3896484,20.0996094-18.9912109c7.6005859-12.5981445,10.9140625-24.5234375,7.4111328-26.6342773
	C159.7060547,269.9189453,150.7089844,278.4194336,143.1132813,291.0175781z"/>
<path fill="#DD0A90" d="M127.1748047,284.0161133c-6.6171875,10.9755859-10.5332031,20.75-8.7402344,21.8359375
	c1.796875,1.0771484,8.6162109-6.9399414,15.2314453-17.918457c6.6181641-10.9746094,10.5263672-20.7460938,8.7333984-21.8276367
	C140.6103516,265.0214844,133.7919922,273.0405273,127.1748047,284.0161133z"/>
<path fill="#C21296" d="M291.2998047,432.5537109c-7.7382813,18.2324219-3.6572266,37.4013672,9.109375,42.8212891
	c12.7763672,5.4140625,29.3925781-4.9697266,37.1230469-23.2060547c7.7402344-18.2246094,3.6621094-37.3984375-9.1044922-42.8173828
	C315.6552734,403.9345703,299.0322266,414.3232422,291.2998047,432.5537109z"/>
<path fill="#C21296" d="M217.5107422,406.0732422c-5.9960938,19.2568359-0.5976563,38.0595703,12.0507813,41.9980469
	c12.6582031,3.9306641,27.7617188-8.484375,33.7558594-27.7460938c5.9951172-19.2519531,0.5996094-38.0576172-12.0488281-41.9921875
	C238.6152344,374.3964844,223.4990234,386.8173828,217.5107422,406.0732422z"/>
<path fill="#C21296" d="M162.5576172,383.1748047c-6.8359375,17.6621094-5.1425781,34.7753906,3.7783203,38.2246094
	c8.9248047,3.4443359,21.6884766-8.0673828,28.5185547-25.734375c6.8339844-17.6542969,5.1464844-34.7773438-3.7753906-38.2275391
	C182.1542969,353.9892578,169.3837891,365.5136719,162.5576172,383.1748047z"/>
<path fill="#C21296" d="M125.0068359,366.4296875c-6.0117188,15.5322266-6.4902344,29.8173828-1.0761719,31.9101563
	c5.4169922,2.0917969,14.6757813-8.7919922,20.6826172-24.3300781c6.0078125-15.5244141,6.4921875-29.8212891,1.0771484-31.9169922
	C140.2763672,340.0029297,131.0117188,350.8994141,125.0068359,366.4296875z"/>
<path fill="#C21296" d="M101.2666016,354.6494141c-5.2636719,13.5927734-7,25.5800781-3.8867188,26.7841797
	c3.109375,1.2001953,9.890625-8.8320313,15.1503906-22.4267578c5.2548828-13.5830078,6.9941406-25.5810547,3.8857422-26.7871094
	C113.3056641,331.0214844,106.5205078,341.0644531,101.2666016,354.6494141z"/>
<path fill="#C21296" d="M89.0908203,347.3232422c-5.4628906,12.1015625-8.9287109,22.3427734-7.7480469,22.8730469
	c1.1835938,0.5341797,6.5644531-8.8339844,12.0302734-20.9423828c5.4707031-12.0917969,8.9404297-22.3447266,7.7626953-22.8808594
	C99.9482422,325.8427734,94.5595703,335.2285156,89.0908203,347.3232422z"/>
<path fill="#A41CA2" d="M298.2021484,537.9023438c-3.2949219,18.7480469,6.4042969,36.1123047,21.6533203,38.7871094
	c15.2626953,2.6777344,30.2880859-10.3408203,33.5732422-29.0898438
	c3.2949219-18.7382813-6.4003906-36.1074219-21.6513672-38.7861328
	C316.5214844,506.1367188,301.4892578,519.1621094,298.2021484,537.9023438z"/>
<path fill="#A41CA2" d="M223.2900391,507.8320313c-3.515625,20.0107422,4.7441406,38.1767578,18.4384766,40.5800781
	c13.7050781,2.4033203,27.6474609-11.8623047,31.1582031-31.8730469
	c3.5166016-20.0029297-4.7392578-38.1699219-18.4345703-40.5791016
	C240.75,473.5546875,226.7998047,487.8271484,223.2900391,507.8320313z"/>
<path fill="#A41CA2" d="M163.4042969,477.03125c-4.296875,17.8681641,0.4345703,34.3173828,10.5585938,36.75
	c10.1298828,2.4287109,21.8115234-10.0693359,26.1025391-27.9423828
	c4.2949219-17.8515625-0.4296875-34.3037109-10.5507813-36.7392578
	C179.3857422,446.6660156,167.6884766,459.1699219,163.4042969,477.03125z"/>
<path fill="#A41CA2" d="M115.8378906,454.8134766c-3.5224609,16.2939453-0.6650391,30.7304688,6.3681641,32.2480469
	c7.0429688,1.5136719,15.6015625-10.4423828,19.1171875-26.7382813c3.5253906-16.2783203,0.6748047-30.7099609-6.3642578-32.2373047
	C127.9150391,426.5664063,119.3535156,438.5332031,115.8378906,454.8134766z"/>
<path fill="#A41CA2" d="M82.7714844,438.5869141c-2.3837891,14.7675781-0.5214844,27.3486328,4.1552734,28.1015625
	c4.6816406,0.7431641,10.3984375-10.6044922,12.7832031-25.3701172c2.3789063-14.7539063,0.515625-27.3242188-4.1582031-28.0859375
	C90.8759766,412.4833984,85.1572266,423.8330078,82.7714844,438.5869141z"/>
<path fill="#A41CA2" d="M68.9111328,427.1298828c-2.9423828,13.0605469-3.6923828,24.0166016-1.6796875,24.46875
	c2.015625,0.4453125,6.0273438-9.7666016,8.9648438-22.828125C79.1357422,415.7207031,79.8857422,404.7744141,77.875,404.3125
	C75.8603516,403.8720703,71.8447266,414.0820313,68.9111328,427.1298828z"/>
<path fill="#A41CA2" d="M321.1367188,634.9306641c-0.6171875,17.4667969,10.1171875,32.0244141,23.9697266,32.5097656
	c13.8671875,0.4921875,25.5966797-13.2636719,26.2089844-30.7392578c0.6201172-17.4580078-10.1132813-32.015625-23.96875-32.5048828
	C333.4863281,603.7080078,321.7519531,617.46875,321.1367188,634.9306641z"/>
<path fill="#A41CA2" d="M242.5830078,602.5673828c-0.0117188,17.828125,11.2265625,32.2822266,25.0898438,32.2871094
	c13.875,0.0068359,25.1123047-14.4326172,25.1171875-32.2695313c0.0107422-17.8203125-11.2265625-32.2792969-25.0869141-32.2822266
	C253.8320313,570.2988281,242.5869141,584.7451172,242.5830078,602.5673828z"/>
<path fill="#A41CA2" d="M175.6582031,570.4238281c-0.0107422,19.3310547,9.8017578,35.0058594,21.9111328,35.0107422
	c12.1181641,0.0068359,21.9375-15.6533203,21.9414063-34.9980469c0.0117188-19.3222656-9.8007813-35.0029297-21.9072266-35.0048828
	C185.4892578,535.4316406,175.6630859,551.0947266,175.6582031,570.4238281z"/>
<path fill="#8E26AC" d="M123.6298828,544.1845703c-0.0078125,17.6757813,6.9853516,32.0107422,15.6181641,32.0107422
	c8.6367188,0.0068359,15.6376953-14.3125,15.6425781-32.0019531c0.0097656-17.6679688-6.9833984-32.0068359-15.6142578-32.0068359
	C130.6425781,512.1865234,123.6337891,526.5087891,123.6298828,544.1845703z"/>
<path fill="#8E26AC" d="M86.5478516,521.3046875c-0.8662109,16.8945313,3.2011719,30.8300781,9.0722656,31.1279297
	c5.8730469,0.3007813,11.328125-13.1396484,12.1875-30.0498047c0.8623047-16.8818359-3.1972656-30.8222656-9.0683594-31.1220703
	C92.8671875,490.96875,87.40625,504.4121094,86.5478516,521.3046875z"/>
<path fill="#8E26AC" d="M63.4462891,505.5195313c-0.7714844,15.0380859,1.5136719,27.3701172,5.0927734,27.5517578
	c3.5830078,0.1826172,7.1044922-11.8457031,7.8701172-26.8945313c0.7675781-15.0263672-1.5117188-27.3662109-5.09375-27.5488281
	C67.7353516,478.4521484,64.2089844,490.4863281,63.4462891,505.5195313z"/>
<path fill="#8E26AC" d="M53.2041016,494.4179688c-1.0820313,12.6523438-0.5957031,23.0166016,1.0820313,23.1591797
	c1.6796875,0.1425781,3.9121094-9.9814453,4.9941406-22.6464844c1.0800781-12.6445313,0.5957031-23.0195313-1.0800781-23.1630859
	C56.5214844,471.6328125,54.2822266,481.7636719,53.2041016,494.4179688z"/>
<path fill="#772AB3" d="M268.3447266,702.4804688c4.015625,16.9697266,17.2666016,28.3623047,29.5820313,25.4394531
	c12.3369141-2.9160156,19.0625-19.0332031,15.0439453-36.0097656
	c-4.0166016-16.9609375-17.2675781-28.3544922-29.5908203-25.4326172
	C271.0546875,669.4042969,264.3251953,685.5214844,268.3447266,702.4804688z"/>
<path fill="#752BB3" d="M198.2861328,667.9541016c2.9160156,18.4990234,14.9511719,31.9785156,26.8662109,30.0908203
	c11.9365234-1.8730469,19.2314453-18.3935547,16.3115234-36.90625
	c-2.9160156-18.4921875-14.953125-31.9716797-26.8710938-30.0869141
	C202.6650391,632.9384766,195.3671875,649.4589844,198.2861328,667.9541016z"/>
<path fill="#752BB3" d="M143.2822266,638.7998047c3.2851563,17.3173828,13.1640625,29.9941406,22.0527344,28.3056641
	c8.9111328-1.6855469,13.4550781-17.09375,10.1679688-34.4208984
	c-3.2861328-17.3173828-13.1640625-29.9990234-22.0605469-28.3056641
	C144.5419922,606.0722656,139.9970703,621.4824219,143.2822266,638.7998047z"/>
<path fill="#752BB3" d="M100.1992188,612.6318359c1.8408203,15.9814453,8.4804688,28.3447266,14.8232422,27.6132813
	c6.359375-0.7275391,10.0097656-14.2724609,8.1660156-30.2597656c-1.8398438-15.9765625-8.4804688-28.3476563-14.828125-27.6083984
	C102.0087891,583.1142578,98.359375,596.6582031,100.1992188,612.6318359z"/>
<path fill="#752BB3" d="M72.0185547,590.625c0.8652344,14.4267578,4.7363281,25.9384766,8.6425781,25.7070313
	c3.9169922-0.2333984,6.3759766-12.1201172,5.5097656-26.5595703c-0.8671875-14.4257813-4.7421875-25.9384766-8.6484375-25.6972656
	C73.6123047,564.3125,71.1513672,576.2011719,72.0185547,590.625z"/>
<path fill="#752BB3" d="M55.7197266,576.7412109c0.3525391,12.2734375,2.4882813,22.1708984,4.7734375,22.1103516
	c2.2871094-0.0683594,3.8496094-10.0664063,3.4941406-22.3515625c-0.3574219-12.265625-2.5-22.1728516-4.7832031-22.0976563
	C56.9189453,554.4716797,55.3662109,564.4755859,55.7197266,576.7412109z"/>
<path fill="#6034BB" d="M368.3115234,808.1845703c0.8105469,12.7919922,10.7695313,22.5839844,22.2226563,21.8447266
	c11.4697266-0.7226563,20.0996094-11.6865234,19.2841797-24.4902344
	c-0.8144531-12.7919922-10.7646484-22.5751953-22.2294922-21.8447266
	C376.1230469,784.4257813,367.4970703,795.3964844,368.3115234,808.1845703z"/>
<path fill="#6034BB" d="M296.8466797,783.7197266c5.2558594,13.2490234,18.4589844,20.4560547,29.4677734,16.0742188
	c11.0273438-4.3681641,15.6845703-18.6523438,10.4267578-31.9130859
	c-5.265625-13.2480469-18.4560547-20.4472656-29.4765625-16.0703125
	C296.2431641,756.1835938,291.5869141,770.4755859,296.8466797,783.7197266z"/>
<path fill="#6034BB" d="M231.5439453,753.2783203c6.0371094,15.1435547,18.9375,24.2353516,28.7890625,20.2958984
	c9.8671875-3.9296875,12.9589844-19.3886719,6.9169922-34.5390625
	c-6.0488281-15.1474609-18.9384766-24.2333984-28.7958984-20.2949219
	C228.5888672,722.6806641,225.5029297,738.1445313,231.5439453,753.2783203z"/>
<path fill="#6034BB" d="M172.5458984,721.7519531c5.2880859,16.7890625,16.71875,28.1542969,25.5009766,25.3740234
	c8.7978516-2.7617188,11.6337891-18.6113281,6.3378906-35.4082031
	c-5.3027344-16.7910156-16.7216797-28.1513672-25.5117188-25.3740234
	C170.0751953,689.1259766,167.2509766,704.9794922,172.5458984,721.7519531z"/>
<path fill="#6034BB" d="M126.375,692.9287109c4.1669922,16.1142578,12.8935547,27.8046875,19.4726563,26.0869141
	c6.5908203-1.6943359,8.5498047-16.1279297,4.3798828-32.2529297
	c-4.1757813-16.1191406-12.8945313-27.8007813-19.4804688-26.0927734
	C124.15625,662.3837891,122.2060547,676.8271484,126.375,692.9287109z"/>
<path fill="#6034BB" d="M93.3671875,670.4833984c3.6826172,15.6845703,10.2275391,27.5732422,14.6064453,26.5351563
	c4.3867188-1.0224609,4.9589844-14.5625,1.2734375-30.2558594c-3.6826172-15.6845703-10.2246094-27.5644531-14.6054688-26.5302734
	C90.2519531,641.2685547,89.6904297,654.8115234,93.3671875,670.4833984z"/>
<path fill="#6034BB" d="M72.3193359,650.5283203c2.6582031,14.0361328,6.7978516,25.0410156,9.2382813,24.5683594
	c2.4453125-0.4550781,2.2763672-12.1982422-0.3847656-26.2373047c-2.65625-14.0332031-6.7949219-25.0273438-9.2373047-24.5654297
	C69.4882813,624.7636719,69.6630859,636.5097656,72.3193359,650.5283203z"/>
<path fill="#3F208A" d="M61.4345703,637.8310547c2.5839844,13.6435547,5.9179688,24.4726563,7.4414063,24.171875
	c1.5273438-0.28125,0.6738281-11.5683594-1.9140625-25.2148438c-2.5820313-13.6435547-5.9160156-24.4658203-7.4394531-24.1738281
	C57.9931641,612.9101563,58.8535156,624.2001953,61.4345703,637.8310547z"/>
<path fill="#F20082" d="M167.6396484,219.2226563c-7.7792969,10.1870117-13.2441406,19.0898438-12.2128906,19.8828125
	c1.0390625,0.7841797,8.1738281-6.8354492,15.9521484-17.0249023c7.7734375-10.1870117,13.2373047-19.0805664,12.203125-19.8681641
	C182.5537109,201.4194336,175.4150391,209.0327148,167.6396484,219.2226563z"/>
<path fill="#E60D85" d="M179.3671875,220.5668945c-9.3662109,11.3398438-14.9228516,22.2236328-12.40625,24.3076172
	c2.5292969,2.0795898,12.1660156-5.4238281,21.5332031-16.7646484
	c9.3740234-11.3442383,14.9228516-22.2207031,12.4042969-24.3046875
	C198.3789063,201.7216797,188.7402344,209.2275391,179.3671875,220.5668945z"/>
<path fill="#F00487" d="M204.9658203,225.8833008c-10.8828125,12.2197266-16.2910156,25.1733398-12.0810547,28.9267578
	c4.2197266,3.75,16.4580078-3.1186523,27.3408203-15.3481445c10.8847656-12.2265625,16.2900391-25.1777344,12.078125-28.9277344
	C228.0898438,206.7773438,215.8466797,213.6455078,204.9658203,225.8833008z"/>
<path fill="#F60285" d="M243.1435547,236.894043c-11.8261719,13.5874023-15.8632813,29.4428711-9.015625,35.4003906
	c6.8554688,5.9575195,21.9970703-0.2270508,33.8183594-13.8266602c11.828125-13.5932617,15.8613281-29.4438477,9.015625-35.4013672
	C270.109375,217.1010742,254.9619141,223.2890625,243.1435547,236.894043z"/>
<path fill="#F40082" d="M296.1904297,252.5888672c-13.0273438,14.9716797-16.0292969,33.6962891-6.703125,41.8125
	c9.3398438,8.1181641,27.4726563,2.5634766,40.4951172-12.4189453
	c13.0302734-14.9755859,16.0263672-33.6992188,6.6992188-41.8154297
	C327.3466797,232.0415039,309.2099609,237.5991211,296.1904297,252.5888672z"/>
<path fill="#F40082" d="M365.6328125,276.1137695c-12.4335938,14.2900391-14.4199219,32.925293-4.4365234,41.6137695
	c10,8.6894531,28.1835938,4.1533203,40.6113281-10.1479492c12.4384766-14.2919922,14.4189453-32.9272461,4.4355469-41.6147461
	C396.2490234,257.2680664,378.0576172,261.8046875,365.6328125,276.1137695z"/>
<path fill="#F40082" d="M443.8212891,302.5c-11.2832031,13.2241211-11.7597656,31.3535156-1.0634766,40.4804688
	c10.7177734,9.1337891,28.546875,5.8193359,39.8222656-7.4179688c11.2919922-13.2246094,11.7617188-31.3564453,1.0654297-40.4829102
	C472.9375,285.9394531,455.0966797,289.2543945,443.8212891,302.5z"/>
<path fill="#FF0185" d="M442.5283203,226.7431641c-12.6738281,11.1513672-16.1992188,27.871582-7.8740234,37.3310547
	c8.3447266,9.4711914,25.3701172,8.1157227,38.0371094-3.050293c12.6845703-11.1479492,16.2089844-27.8662109,7.8779297-37.331543
	C472.2373047,214.2192383,455.2001953,215.574707,442.5283203,226.7431641z"/>
<path fill="#FF0083" d="M373.9511719,203.2241211c-14.6884766,12.1323242-20.5595703,29.2885742-13.1074219,38.3061523
	c7.4648438,9.0292969,25.4140625,6.5209961,40.0996094-5.6259766
	c14.7001953-12.1318359,20.5673828-29.2851563,13.1152344-38.3105469
	C406.6035156,188.5649414,388.640625,191.0732422,373.9511719,203.2241211z"/>
<path fill="#FF0083" d="M314.9404297,187.2172852c-14.0683594,10.9135742-21.0595703,25.4584961-15.6142578,32.4775391
	c5.4580078,7.0229492,21.2783203,3.8759766,35.3457031-7.0493164
	c14.0791016-10.9174805,21.0664063-25.4624023,15.6181641-32.4853516
	C344.8427734,173.1357422,329.0136719,176.2841797,314.9404297,187.2172852z"/>
<path fill="#EF0280" d="M270.7460938,176.1181641c-11.9599609,10.4731445-18.3173828,22.7929688-14.1904297,27.5087891
	c4.1386719,4.7197266,17.1875,0.0615234,29.1542969-10.418457c11.9726563-10.4775391,18.3222656-22.7973633,14.2001953-27.5185547
	C295.7802734,160.9697266,282.7216797,165.6298828,270.7460938,176.1181641z"/>
<path fill="#FF0086" d="M237.6240234,170.8388672c-11.1464844,9.7617188-18.0126953,20.1669922-15.3261719,23.2373047
	c2.6953125,3.0722656,13.9150391-2.3447266,25.0703125-12.1123047
	c11.1572266-9.7670898,18.0175781-20.1733398,15.3349609-23.2475586
	C260.0136719,155.6445313,248.7880859,161.0639648,237.6240234,170.8388672z"/>
<path fill="#FF0086" d="M219.3398438,168.9345703c-9.2021484,8.7407227-15.4550781,17.1000977-13.9580078,18.6762695
	c1.4960938,1.5766602,10.1679688-4.2294922,19.3769531-12.9726563c9.2089844-8.7436523,15.4550781-17.1069336,13.9628906-18.690918
	C237.2255859,154.3745117,228.5498047,160.1831055,219.3398438,168.9345703z"/>
<path fill="#FB0081" d="M588.0810547,205.293457c-9.7861328,8.6108398-11.6376953,22.5102539-4.1347656,31.0351563
	c7.5195313,8.5371094,21.5361328,8.4794922,31.3173828-0.1450195c9.7929688-8.6040039,11.6464844-22.5068359,4.1396484-31.0351563
	C611.8916016,196.6113281,597.8681641,196.6689453,588.0810547,205.293457z"/>
<path fill="#FA0082" d="M521.5175781,177.9550781c-12.1845703,7.2641602-17.5771484,20.6967773-12.0292969,29.9926758
	c5.5537109,9.3149414,19.9287109,10.9711914,32.1103516,3.7001953
	c12.1992188-7.2631836,17.5869141-20.6967773,12.0390625-30.0004883
	C548.0927734,172.3369141,533.7128906,170.6772461,521.5175781,177.9550781z"/>
<path fill="#FF0081" d="M454.7089844,157.605957c-13.7617188,8.6665039-20.4677734,22.7641602-14.9677734,31.4873047
	c5.5097656,8.746582,21.1162109,8.809082,34.8730469,0.1435547c13.7773438-8.6552734,20.4785156-22.7583008,14.9746094-31.4960938
	C484.0927734,149.0058594,468.4746094,148.9335938,454.7089844,157.605957z"/>
<path fill="#F10482" d="M394.9658203,140.6157227c-15.2246094,9.5869141-23.6650391,23.5629883-18.8369141,31.2167969
	c4.8330078,7.671875,21.0810547,6.1206055,36.3017578-3.4663086c15.2402344-9.5776367,23.6738281-23.5600586,18.8476563-31.2255859
	C426.4550781,129.4775391,410.1953125,131.0195313,394.9658203,140.6157227z"/>
<path fill="#FF0189" d="M347.8457031,130.3178711c-14.6523438,8.3251953-23.9482422,19.6196289-20.7548828,25.2241211
	c3.1962891,5.6181641,17.6513672,3.4257813,32.2978516-4.902832c14.6650391-8.3178711,23.9589844-19.6157227,20.7685547-25.2314453
	C376.9677734,119.796875,362.5019531,121.9853516,347.8457031,130.3178711z"/>
<path fill="#F9007F" d="M310.9902344,123.3383789c-12.9853516,7.8535156-21.6455078,17.3129883-19.3349609,21.1201172
	c2.3144531,3.8178711,14.7089844,0.5556641,27.6894531-7.3012695c13.0039063-7.8452148,21.6591797-17.3081055,19.3505859-21.1264648
	C336.3867188,112.2119141,323.984375,115.4819336,310.9902344,123.3383789z"/>
<path fill="#F9007F" d="M287.7441406,122.6181641c-12.5966797,8.4599609-21.8808594,16.7055664-20.7216797,18.421875
	c1.1582031,1.7133789,12.3007813-3.7475586,24.8964844-12.2070313
	c12.6152344-8.4594727,21.8925781-16.7104492,20.7392578-18.4291992S300.3505859,114.1533203,287.7441406,122.6181641z"/>
<path fill="#F9007F" d="M274.5595703,123.4921875c-10.8984375,7.3178711-19.1396484,14.1411133-18.3945313,15.2382813
	c0.7441406,1.0991211,10.1738281-3.9375,21.0722656-11.2539063c10.9121094-7.3203125,19.1464844-14.1445313,18.4082031-15.2490234
	C294.9033203,111.1254883,285.4658203,116.1689453,274.5595703,123.4921875z"/>
<path fill="#5236BF" d="M385.9199219,879.0722656c0.6503906,10.3115234,9.8408203,18.1308594,20.5039063,17.4414063
	c10.6787109-0.6748047,18.7910156-9.5820313,18.1347656-19.9033203
	c-0.6572266-10.3115234-9.8369141-18.1230469-20.5107422-17.4394531
	C393.3740234,859.8505859,385.2626953,868.7666016,385.9199219,879.0722656z"/>
<path fill="#5236BF" d="M325.421875,857.4638672c4.4189453,11.6220703,15.6923828,18.1240234,25.1513672,14.5107422
	c9.4765625-3.5976563,13.5664063-15.9335938,9.1386719-27.5625c-4.4228516-11.6162109-15.6816406-18.1123047-25.1542969-14.5078125
	C325.0849609,833.5175781,321.0019531,845.8583984,325.421875,857.4638672z"/>
<path fill="#5236BF" d="M266.0205078,830.9355469c5.984375,12.6904297,17.6367188,19.7724609,26,15.8134766
	c8.375-3.9443359,10.3085938-17.4306641,4.3125-30.1230469c-5.9873047-12.6757813-17.625-19.7568359-25.9990234-15.8007813
	C261.9580078,804.7832031,260.0322266,818.2744141,266.0205078,830.9355469z"/>
<path fill="#5236BF" d="M210.1621094,803.3291016c6.8994141,14.6328125,18.390625,23.7148438,25.6357422,20.2822266
	c7.2597656-3.4189453,7.5429688-18.0458984,0.6298828-32.6787109
	c-6.9052734-14.6181641-18.3798828-23.6972656-25.6357422-20.2734375
	C203.5361328,774.0917969,203.2587891,788.7294922,210.1621094,803.3291016z"/>
<path fill="#4C36B7" d="M162.4306641,775.265625c5.8359375,14.4326172,15.2714844,24.2226563,21.0527344,21.8730469
	c5.7890625-2.3398438,5.7480469-15.9257813-0.0996094-30.3535156c-5.8378906-14.4082031-15.2597656-24.1992188-21.046875-21.8535156
	C156.5478516,747.2753906,156.5966797,760.875,162.4306641,775.265625z"/>
<path fill="#5137BE" d="M126.8798828,750.8310547c5.2490234,12.9736328,12.7177734,22.1865234,16.6679688,20.578125
	c3.9560547-1.5986328,2.90625-13.4033203-2.3486328-26.3720703c-5.2490234-12.9541016-12.7080078-22.1650391-16.6630859-20.5615234
	C120.5820313,726.078125,121.6357422,737.8945313,126.8798828,750.8310547z"/>
<path fill="#4D33C5" d="M102.1728516,729.9443359c4.8691406,13.1259766,10.6738281,23.0644531,12.9511719,22.2158203
	c2.2871094-0.8457031,0.1933594-12.1601563-4.6816406-25.2763672C105.5751953,713.78125,99.7763672,703.8388672,97.4931641,704.6875
	C95.2099609,705.5341797,97.3095703,716.8613281,102.1728516,729.9443359z"/>
<path fill="#4D33C5" d="M88.0039063,715.7841797c4.0693359,10.7480469,8.4150391,19.0566406,9.7021484,18.5683594
	c1.2910156-0.4873047-0.9589844-9.5917969-5.03125-20.3369141c-4.0644531-10.7246094-8.4082031-19.0400391-9.6972656-18.5449219
	C81.6845703,695.9511719,83.9423828,705.0644531,88.0039063,715.7841797z"/>
<path fill="#4238C4" d="M509.5527344,970.1259766c1.3056641,4.453125,8.9726563,6.1171875,17.0908203,3.7109375
	c8.1386719-2.3925781,13.6611328-7.9433594,12.3515625-12.3945313c-1.3144531-4.4443359-8.9638672-6.1083984-17.0996094-3.7050781
	C513.7646484,960.1347656,508.2451172,965.6865234,509.5527344,970.1259766z"/>
<path fill="#4238C4" d="M458.5585938,954.9111328c2.0722656,5.234375,10.4160156,6.8369141,18.6044922,3.5644531
	c8.2119141-3.2509766,13.171875-10.1289063,11.0957031-15.3574219c-2.0742188-5.2236328-10.4023438-6.828125-18.6083984-3.5625
	C461.4453125,942.8134766,456.4853516,949.6962891,458.5585938,954.9111328z"/>
<path fill="#4238C4" d="M405.1513672,934.2988281c2.7294922,6.8945313,11.1044922,10.0449219,18.6689453,7.0107422
	c7.5908203-2.9990234,11.5126953-11.0205078,8.7792969-17.9101563c-2.7333984-6.8789063-11.0927734-10.0351563-18.6787109-7.0166016
	C406.3398438,919.3964844,402.4160156,927.4267578,405.1513672,934.2988281z"/>
<path fill="#4238C4" d="M353.8691406,917.2021484c6.8222656,7.1064453,16.9550781,8.4697266,22.5771484,3.0224609
	c5.6640625-5.4199219,4.7050781-15.5751953-2.1162109-22.6806641c-6.8183594-7.0869141-16.9326172-8.4570313-22.5820313-3.0185547
	C346.0966797,899.9492188,347.0585938,910.1220703,353.8691406,917.2021484z"/>
<path fill="#4238C4" d="M298.8339844,891.171875c5.9570313,9.6259766,15.9013672,14.2792969,22.1542969,10.3652344
	c6.2949219-3.8818359,6.5439453-14.8310547,0.5869141-24.4541016c-5.9580078-9.6035156-15.8779297-14.2587891-22.1601563-10.3544922
	C293.1337891,870.6132813,292.8837891,881.5820313,298.8339844,891.171875z"/>
<path fill="#4238C4" d="M248.4033203,867.0947266c6.7148438,11.5878906,16.8007813,18.3056641,22.4746094,14.96875
	c5.7148438-3.2880859,4.8769531-15.3476563-1.8359375-26.9365234c-6.7148438-11.5673828-16.7763672-18.2841797-22.4785156-14.96875
	C240.8623047,843.4609375,241.7001953,855.5458984,248.4033203,867.0947266z"/>
<path fill="#4238C4" d="M203.3115234,842.2919922c7.7675781,13.5576172,18.0283203,22.2978516,22.859375,19.4824219
	c4.8789063-2.7685547,2.5097656-16.0097656-5.2587891-29.5673828
	c-7.7666016-13.5439453-18.0029297-22.2802734-22.8652344-19.4824219
	C193.1845703,815.4980469,195.5576172,828.7685547,203.3115234,842.2919922z"/>
<path fill="#4238C4" d="M166.5791016,818.8642578c7.5214844,13.1337891,16.6220703,22.078125,20.2744141,19.9345703
	c3.6923828-2.0888672,0.5654297-14.4296875-6.9580078-27.5625c-7.5214844-13.1162109-16.6025391-22.0556641-20.2802734-19.9404297
	C155.9345703,793.3935547,159.0693359,805.7685547,166.5791016,818.8642578z"/>
<path fill="#4238C4" d="M139.1103516,798.1679688c6.9130859,12.1259766,14.4394531,20.8769531,16.7675781,19.5019531
	c2.3671875-1.3232422-1.3320313-12.2314453-8.2480469-24.3515625
	c-6.9101563-12.1162109-14.4179688-20.8574219-16.7685547-19.5058594
	C128.5029297,775.140625,132.2138672,786.0742188,139.1103516,798.1679688z"/>
<path fill="#4238C4" d="M120.1572266,781.4716797c6.3378906,11.2363281,12.7714844,19.6357422,14.3359375,18.7138672
	c1.5976563-0.8798828-2.2539063-10.7080078-8.59375-21.9423828c-6.3359375-11.2285156-12.7539063-19.6201172-14.3378906-18.7119141
	C109.9707031,760.4072266,113.8369141,770.2626953,120.1572266,781.4716797z"/>
<path fill="#3B43D3" d="M165.6689453,844.5683594c7.2402344,8.9980469,13.9199219,15.65625,14.8886719,14.8408203
	c1.0019531-0.7802734-4.0664063-8.7167969-11.3115234-17.71875c-7.2363281-8.9814453-13.8994141-15.6337891-14.8876953-14.8310547
	C153.3662109,827.6318359,158.4492188,835.5908203,165.6689453,844.5683594z"/>
<path fill="#3B43D3" d="M187.9345703,862.5498047c7.9707031,9.9042969,15.4160156,17.1611328,16.5976563,16.171875
	c1.2177734-0.9501953-4.2695313-9.765625-12.2460938-19.6738281c-7.9658203-9.8857422-15.3935547-17.1347656-16.5957031-16.1591797
	C174.4853516,843.8291016,179.9892578,852.6679688,187.9345703,862.5498047z"/>
<path fill="#3B43D3" d="M214.5517578,881.3994141c8.015625,10.2480469,16.3427734,17.1425781,18.5732422,15.3603516
	c2.2646484-1.7382813-2.4052734-11.4765625-10.4287109-21.7314453
	c-8.0146484-10.2285156-16.3242188-17.1142578-18.578125-15.3496094
	C201.8759766,861.4091797,206.5644531,871.1689453,214.5517578,881.3994141z"/>
<path fill="#3B43D3" d="M247.8388672,901.2988281c8.8574219,10.6748047,18.5410156,17.2734375,21.5976563,14.7001953
	c3.0917969-2.5351563-1.5859375-13.2626953-10.4570313-23.9472656
	c-8.8613281-10.6630859-18.5234375-17.2548828-21.6054688-14.6884766
	C234.3095703,879.8779297,239.0107422,890.6308594,247.8388672,901.2988281z"/>
<path fill="#3B43D3" d="M286.8564453,922.1894531c6.7871094,8.1757813,15.4707031,12.1855469,19.3720703,8.9189453
	c3.9306641-3.234375,1.6123047-12.5097656-5.1826172-20.6933594c-6.796875-8.1621094-15.4570313-12.1699219-19.3847656-8.9082031
	C277.7646484,904.7226563,280.0976563,914.0126953,286.8564453,922.1894531z"/>
<path fill="#3B43D3" d="M329.0253906,941.6298828c6.1494141,6.9208984,14.2119141,9.8085938,17.9970703,6.4179688
	c3.8105469-3.3613281,1.9091797-11.7089844-4.2470703-18.6337891c-6.15625-6.9052734-14.2021484-9.7949219-18.0078125-6.4111328
	C320.9882813,926.3505859,322.9023438,934.7089844,329.0253906,941.6298828z"/>
<path fill="#3B43D3" d="M370.1855469,961.2080078c4.8466797,5.4580078,12.8652344,6.2460938,17.9111328,1.7470703
	c5.0605469-4.4775391,5.234375-12.5351563,0.3828125-17.9951172c-4.8574219-5.4355469-12.8613281-6.2392578-17.9257813-1.7392578
	C365.5332031,947.6738281,365.3681641,955.7529297,370.1855469,961.2080078z"/>
<path fill="#3B43D3" d="M410.2021484,970.5849609c-0.0058594,5.2304688,5.7636719,9.4736328,12.8964844,9.4667969
	c7.1298828,0.0224609,12.9111328-4.2119141,12.9140625-9.4404297c-0.015625-5.2285156-5.765625-9.4609375-12.9140625-9.4677734
	C416.0195313,961.1308594,410.2236328,965.3759766,410.2021484,970.5849609z"/>
<path fill="#3B43D3" d="M450.9648438,986.2529297c0.6982422,3.9228516,7.6435547,5.9677734,15.5244141,4.546875
	c7.8847656-1.3925781,13.7050781-5.7138672,13.0048828-9.6337891c-0.7236328-3.9208984-7.6513672-5.953125-15.5517578-4.5488281
	C456.1181641,978.0019531,450.2851563,982.3378906,450.9648438,986.2529297z"/>
<path fill="#3B43D3" d="M487.4326172,999.7041016c0.5195313,3.0830078,8.109375,4.3769531,16.9570313,2.859375
	c8.8515625-1.4921875,15.5966797-5.2119141,15.0742188-8.296875c-0.5488281-3.0859375-8.1162109-4.3662109-16.9873047-2.8623047
	C493.6914063,992.8857422,486.9306641,996.625,487.4326172,999.7041016z"/>
<path fill="#3B43D3" d="M523.1435547,1008.1582031c0.1865234,1.7128906,7.2236328,2.3583984,15.7265625,1.4208984
	c8.5058594-0.9296875,15.2392578-3.0693359,15.0546875-4.7871094c-0.2080078-1.7138672-7.2265625-2.3476563-15.7519531-1.4169922
	C529.7304688,1004.2910156,522.9765625,1006.4492188,523.1435547,1008.1582031z"/>
<path fill="#3B43D3" d="M553.6923828,1014.28125c0.1494141,1.3837891,7.1601563,1.7460938,15.6630859,0.7822266
	c8.5029297-0.9541016,15.2636719-2.8476563,15.1074219-4.2373047c-0.171875-1.3925781-7.1669922-1.7373047-15.6884766-0.7792969
	C560.3378906,1010.9912109,553.5566406,1012.8984375,553.6923828,1014.28125z"/>
<path fill="#3B43D3" d="M578.9472656,1017.8125c0.0664063,1.0126953,9.3066406,1.1494141,20.640625,0.2978516
	c11.3388672-0.8466797,20.4570313-2.3388672,20.3896484-3.3505859c-0.1025391-1.0087891-9.3183594-1.1425781-20.6816406-0.2910156
	C588.046875,1015.2998047,578.8964844,1016.8164063,578.9472656,1017.8125z"/>
<path fill="#3B43D3" d="M214.0126953,896.4980469c8.0449219,8.2890625,15.0830078,14.5224609,15.6865234,13.8984375
	c0.6396484-0.5947266-5.3740234-7.8037109-13.4228516-16.0947266c-8.0371094-8.2724609-15.0605469-14.5009766-15.6816406-13.8886719
	C199.9599609,881.0009766,205.9912109,888.2324219,214.0126953,896.4980469z"/>
<path fill="#3B43D3" d="M236.2402344,912.7402344c8.3388672,7.9951172,15.8115234,13.7460938,16.6533203,12.8291016
	c0.8789063-0.8828125-5.1855469-8.0957031-13.5332031-16.0820313c-8.3388672-7.9765625-15.7929688-13.7197266-16.6542969-12.8144531
	C221.8378906,897.5439453,227.9228516,904.7763672,236.2402344,912.7402344z"/>
<path fill="#3B43D3" d="M259.3427734,926.46875c8.5703125,8.3164063,16.6875,13.8642578,18.0986328,12.3720703
	c1.4414063-1.4501953-4.3447266-9.3974609-12.9238281-17.7070313c-8.5751953-8.2939453-16.6757813-13.8330078-18.1035156-12.3515625
	C244.9863281,910.2207031,250.7958984,918.1845703,259.3427734,926.46875z"/>
<path fill="#3B43D3" d="M289.0615234,942.2421875c7.3876953,7.3828125,14.6787109,12.0791016,16.2402344,10.4853516
	c1.5878906-1.5703125-3.1259766-8.84375-10.5273438-16.21875c-7.3994141-7.3505859-14.6738281-12.0400391-16.2480469-10.4492188
	C276.9511719,927.6044922,281.6816406,934.8896484,289.0615234,942.2421875z"/>
<path fill="#3B43D3" d="M319.7255859,958.5380859c5.4677734,5.7246094,11.8134766,8.5537109,14.1396484,6.3085938
	c2.3408203-2.2275391-0.1962891-8.6953125-5.6806641-14.4160156c-5.4902344-5.6933594-11.8232422-8.515625-14.1630859-6.2705078
	C311.7041016,946.3613281,314.2587891,952.8369141,319.7255859,958.5380859z"/>
<path fill="#3B43D3" d="M351.3320313,974.1552734c5.0800781,3.9677734,11.3798828,4.4023438,14.0410156,0.9648438
	c2.6796875-3.4287109,0.7304688-9.4472656-4.3642578-13.4130859c-5.1103516-3.9306641-11.3994141-4.359375-14.0751953-0.9169922
	C344.2832031,964.1757813,346.2470703,970.1992188,351.3320313,974.1552734z"/>
<path fill="#3B43D3" d="M388.2314453,988.2919922c4.984375,0.6767578,9.4726563-2.0136719,9.9941406-5.9921875
	c0.5410156-3.9882813-3.0712891-7.7851563-8.0664063-8.4541016c-4.9902344-0.6328125-9.4619141,2.0517578-9.9970703,6.0478516
	C379.6269531,983.8339844,383.2509766,987.6240234,388.2314453,988.2919922z"/>
<path fill="#3B43D3" d="M421.8701172,998.1552734c6.4433594,0,11.6796875-2.3369141,11.6611328-5.1962891
	c0.0087891-2.8759766-5.2275391-5.2080078-11.6826172-5.2001953c-6.4414063,0.0380859-11.6630859,2.3681641-11.6601563,5.2460938
	C410.1884766,995.8408203,415.4296875,998.1689453,421.8701172,998.1552734z"/>
<path fill="#3B43D3" d="M451.6855469,1006.4775391c6.8603516-0.0058594,12.4462891-1.5927734,12.4257813-3.5263672
	c0.0136719-1.9462891-5.5634766-3.5126953-12.4462891-3.5058594c-6.8574219,0.0292969-12.4238281,1.6044922-12.4238281,3.5556641
	C439.2392578,1004.9140625,444.8232422,1006.4912109,451.6855469,1006.4775391z"/>
<path fill="#3B43D3" d="M479.5439453,1014.1591797c7.890625-0.0087891,14.3125-1.3173828,14.2910156-2.9179688
	c0.0166016-1.6005859-6.3964844-2.8916016-14.3125-2.8789063c-7.8886719,0.0273438-14.2900391,1.3300781-14.2929688,2.9365234
	C465.2294922,1012.8759766,471.6494141,1014.1738281,479.5439453,1014.1591797z"/>
<path fill="#3B43D3" d="M502.6474609,1017.6494141c8.1386719-0.0117188,14.7597656-0.6933594,14.7392578-1.5234375
	c0.0205078-0.8291016-6.5908203-1.4921875-14.7548828-1.4814453c-8.1337891,0.0224609-14.7382813,0.7011719-14.7421875,1.5341797
	C487.8896484,1016.9970703,494.5068359,1017.6650391,502.6474609,1017.6494141z"/>
<path fill="#3B43D3" d="M523.8320313,1020.3710938c8.1328125-0.2529297,14.7353516-0.9814453,14.6953125-1.6367188
	c0.0019531-0.6621094-6.6210938-0.9912109-14.7783203-0.7392578c-8.1308594,0.2597656-14.7158203,0.9824219-14.7021484,1.6435547
	C509.0625,1020.2871094,515.6943359,1020.6210938,523.8320313,1020.3710938z"/>
<path fill="#FF0086" d="M636.9472656,187.4536133c1.7958984,10.4296875,12.0673828,17.3789063,22.9404297,15.5039063
	c10.8857422-1.8710938,18.2636719-11.8383789,16.4589844-22.2705078
	c-1.78125-10.4360352-12.0595703-17.3828125-22.9345703-15.5170898
	C642.5234375,167.0410156,635.1513672,177.0107422,636.9472656,187.4536133z"/>
<path fill="#FF0086" d="M602.8896484,175.9458008c10.3027344-7.050293,14.2226563-19.2578125,8.734375-27.2705078
	c-5.4863281-8.0258789-18.2861328-8.824707-28.5888672-1.7631836c-10.3164063,7.0424805-14.2285156,19.2612305-8.75,27.2739258
	C579.7734375,182.2109375,592.5693359,183.0063477,602.8896484,175.9458008z"/>
<path fill="#FF0086" d="M540.1806641,155.7402344c13.0800781-6.3642578,20.4267578-18.2416992,16.3876953-26.5332031
	c-4.0361328-8.3022461-17.9101563-9.8837891-30.9951172-3.5058594
	c-13.0976563,6.3583984-20.4355469,18.2451172-16.4033203,26.5371094
	C513.2080078,160.5405273,527.0771484,162.1142578,540.1806641,155.7402344z"/>
<path fill="#FF0086" d="M481.5537109,135.671875c15.4423828-7.2607422,25.2636719-18.9145508,21.9111328-26.0253906
	c-3.3496094-7.1240234-18.5791016-7.0166016-34.0263672,0.2587891
	c-15.4628906,7.2597656-25.2753906,18.921875-21.9316406,26.0317383
	C450.8544922,143.0595703,466.0810547,142.9492188,481.5537109,135.671875z"/>
<path fill="#FF0086" d="M430.7890625,118.6704102c14.0966797-6.8061523,23.4404297-16.6733398,20.8408203-22.0410156
	c-2.5917969-5.3793945-16.1240234-4.2280273-30.2294922,2.5849609
	c-14.1103516,6.7998047-23.4443359,16.6728516-20.8554688,22.0405273
	C403.1435547,126.6308594,416.6650391,125.4814453,430.7890625,118.6704102z"/>
<path fill="#FF0086" d="M389.8300781,105.7880859c13.5605469-6.8774414,23.0615234-15.40625,21.2050781-19.0458984
	c-1.8515625-3.6542969-14.3378906-1.0424805-27.9042969,5.8408203c-13.5664063,6.8730469-23.0644531,15.40625-21.2177734,19.050293
	C363.7705078,115.2788086,376.2490234,112.6713867,389.8300781,105.7880859z"/>
<path fill="#FF0086" d="M359.1298828,97.5014648c13.1552734-6.1176758,23.0078125-12.8476563,21.9863281-15.0249023
	c-1.0175781-2.1889648-12.5019531,0.9975586-25.6679688,7.1181641
	c-13.1611328,6.1137695-23.0087891,12.8476563-21.9941406,15.0283203
	C334.4765625,106.8051758,345.9511719,103.6254883,359.1298828,97.5014648z"/>
<path fill="#FF0086" d="M340.59375,93.8847656c11.6044922-5.3740234,20.59375-10.6586914,20.0595703-11.7851563
	c-0.5283203-1.1459961-10.3603516,2.2880859-21.9707031,7.6708984
	c-11.6083984,5.3701172-20.5917969,10.6547852-20.0644531,11.7929688
	C319.1523438,102.6972656,328.9755859,99.2680664,340.59375,93.8847656z"/>
<path fill="#FF0081" d="M688.4746094,154.3745117c4.078125,7.6020508,12.7978516,10.8745117,19.4716797,7.2924805
	c6.6914063-3.5820313,8.8164063-12.6499023,4.7382813-20.2539063c-4.0722656-7.612793-12.7978516-10.8828125-19.4765625-7.3071289
	C686.5136719,137.690918,684.3955078,146.7553711,688.4746094,154.3745117z"/>
<path fill="#FF0081" d="M742.4912109,171.5683594c3.8339844,7.8671875,11.0810547,12.2299805,16.1992188,9.7333984
	c5.1220703-2.4936523,6.1660156-10.8959961,2.3320313-18.7597656c-3.8291016-7.8676758-11.0888672-12.2304688-16.203125-9.7412109
	C739.6943359,155.2978516,738.6513672,163.6914063,742.4912109,171.5683594z"/>
<path fill="#FF0081" d="M793.7373047,192.7138672c4.0771484,7.9575195,10.9287109,12.5927734,15.3105469,10.3427734
	c4.3886719-2.2460938,4.6357422-10.5161133,0.5615234-18.4702148c-4.0673828-7.9589844-10.9355469-12.5981445-15.3164063-10.355957
	C789.90625,176.4824219,789.6591797,184.7460938,793.7373047,192.7138672z"/>
<path fill="#FF0081" d="M640.4511719,115.7133789c-8.2421875,4.4916992-11.7285156,14.0117188-7.7763672,21.2402344
	c3.9453125,7.2553711,13.8271484,9.4931641,22.0761719,4.9946289c8.2509766-4.487793,11.7363281-14.0087891,7.796875-21.2495117
	C658.5957031,113.4433594,648.7138672,111.2050781,640.4511719,115.7133789z"/>
<path fill="#FF0081" d="M590.9941406,99.0097656c-10.8388672,3.9560547-17.6894531,12.4936523-15.2832031,19.0493164
	c2.3984375,6.5825195,13.1289063,8.7021484,23.9755859,4.7392578c10.8505859-3.9550781,17.7021484-12.4936523,15.3095703-19.0551758
	C612.5976563,97.1606445,601.8671875,95.0366211,590.9941406,99.0097656z"/>
<path fill="#FF0081" d="M543.2080078,84.8842773c-13.2597656,4.5859375-22.3457031,13.1694336-20.2607422,19.1455078
	c2.0673828,6.0068359,14.5,7.1484375,27.7783203,2.5581055c13.2763672-4.5830078,22.3603516-13.1669922,20.2910156-19.1542969
	C568.9453125,81.4282227,556.5107422,80.2822266,543.2080078,84.8842773z"/>
<path fill="#FF0081" d="M498.3164063,74.0258789c-14.5419922,5.0024414-24.9511719,13.1176758-23.2158203,18.105957
	c1.7167969,5.015625,14.9033203,5.015625,29.4609375,0.0078125c14.5566406-5,24.9638672-13.1162109,23.2480469-18.1171875
	C526.0878906,69.0102539,512.9013672,69.0048828,498.3164063,74.0258789z"/>
<path fill="#FF0081" d="M460.6884766,66.8798828c-14.078125,4.378418-24.5976563,10.8564453-23.4599609,14.4550781
	c1.1171875,3.6162109,13.4433594,2.9873047,27.5380859-1.3935547c14.0947266-4.378418,24.6132813-10.8564453,23.4941406-14.4648438
	C487.1396484,61.8623047,474.8144531,62.487793,460.6884766,66.8798828z"/>
<path fill="#FF0081" d="M433.1914063,63.5039063c-14.0605469,4.4331055-24.9052734,9.8369141-24.1875,12.0537109
	c0.6923828,2.234375,12.6669922,0.4453125,26.7480469-3.9907227c14.0761719-4.4331055,24.9238281-9.8349609,24.2216797-12.065918
	C459.2724609,57.2744141,447.2998047,59.0595703,433.1914063,63.5039063z"/>
<path fill="#FF0081" d="M412.3066406,63.1298828c-13.2089844,3.8837891-23.6044922,8.152832-23.1884766,9.5229492
	c0.3994141,1.378418,11.4423828-0.65625,24.671875-4.5424805c13.2255859-3.8901367,23.6230469-8.1606445,23.2197266-9.5332031
	C436.6074219,57.2021484,425.5615234,59.2333984,412.3066406,63.1298828z"/>
<path fill="#F50483" d="M804.4277344,159.9838867c5.5400391,7.015625,11.9140625,11.2236328,14.2392578,9.3803711
	c2.3261719-1.8378906-0.28125-9.0170898-5.8164063-16.0297852c-5.5351563-7.0224609-11.921875-11.2260742-14.2480469-9.3916016
	C796.2773438,145.7851563,798.8876953,152.9570313,804.4277344,159.9838867z"/>
<path fill="#F50483" d="M839.9853516,175.4711914c5.4570313,6.3120117,11.2207031,10.2661133,12.8916016,8.8168945
	c1.6630859-1.4433594-1.4042969-7.7294922-6.8564453-14.0361328c-5.4423828-6.3144531-11.2167969-10.265625-12.8896484-8.8256836
	C831.4599609,162.875,834.5361328,169.1547852,839.9853516,175.4711914z"/>
<path fill="#F50483" d="M871.1455078,192.1005859c5.4550781,6.3120117,11.03125,10.4287109,12.4716797,9.1806641
	c1.4306641-1.2436523-1.8242188-7.3686523-7.2753906-13.6748047c-5.4443359-6.3144531-11.03125-10.4277344-12.4716797-9.1870117
	C862.4326172,179.6669922,865.6943359,185.7841797,871.1455078,192.1005859z"/>
<path fill="#F50483" d="M895.0625,205.4697266c4.8837891,5.46875,9.4873047,9.328125,10.2939453,8.6049805
	c0.7949219-0.7192383-2.5097656-5.7363281-7.3847656-11.2006836c-4.8759766-5.4750977-9.4873047-9.3300781-10.2890625-8.6108398
	C886.8789063,194.9873047,890.1806641,199.9960938,895.0625,205.4697266z"/>
<path fill="#F50483" d="M912.4335938,218.3081055c3.9921875,4.1025391,7.6611328,7.0151367,8.2001953,6.4882813
	c0.5283203-0.5229492-2.2744141-4.2763672-6.2597656-8.3813477c-3.9892578-4.1054688-7.6542969-7.0126953-8.1953125-6.4892578
	C905.6416016,210.4526367,908.4443359,214.1992188,912.4335938,218.3081055z"/>
<path fill="#ED0983" d="M763.4697266,144.7290039c4.3271484,6.4516602,10.6679688,9.7905273,14.1845703,7.4301758
	c3.5126953-2.3520508,2.8652344-9.4936523-1.4472656-15.9453125c-4.3173828-6.4619141-10.6865234-9.7890625-14.1943359-7.440918
	C758.4921875,131.1298828,759.1542969,138.2592773,763.4697266,144.7290039z"/>
<path fill="#ED0983" d="M721.0751953,129.6894531c5.0351563,5.9145508,12.3457031,7.9770508,16.3457031,4.5673828
	c4.0009766-3.3969727,3.1708984-10.9516602-1.8486328-16.8696289c-5.0253906-5.9287109-12.3652344-7.9692383-16.3613281-4.5776367
	C715.2041016,116.2148438,716.0517578,123.7539063,721.0751953,129.6894531z"/>
<path fill="#ED0983" d="M686.2138672,96.027832c-7.3847656-0.6010742-13.7695313,3.7192383-14.2597656,9.7001953
	c-0.4941406,5.972168,5.0791016,11.3129883,12.4550781,11.9291992c7.3662109,0.6210938,13.7617188-3.7470703,14.2607422-9.7124023
	C699.1650391,101.96875,693.5908203,96.652832,686.2138672,96.027832z"/>
<path fill="#ED0983" d="M640.8720703,82.5375977c-8.2841797,2.1821289-13.8369141,8.3671875-12.3935547,13.8598633
	c1.4414063,5.4858398,9.3154297,8.1757813,17.59375,6.0102539c8.2685547-2.1552734,13.8173828-8.3857422,12.3876953-13.8691406
	C657.0224609,83.046875,649.1523438,80.3789063,640.8720703,82.5375977z"/>
<path fill="#ED0983" d="M601.0068359,71.0322266c-10.3740234,2.2763672-17.9648438,7.8608398-16.9453125,12.5078125
	c1.0224609,4.6455078,10.2451172,6.578125,20.6103516,4.3173828c10.3554688-2.253418,17.9521484-7.8725586,16.9384766-12.5170898
	C620.5966797,70.6889648,611.375,68.777832,601.0068359,71.0322266z"/>
<path fill="#ED0983" d="M563.7353516,61.8486328c-13.0273438,2.4604492-23.0390625,7.3945313-22.3388672,11.046875
	c0.6972656,3.6484375,11.8017578,4.6230469,24.8203125,2.1738281c13-2.4404297,23.0214844-7.4008789,22.3408203-11.0517578
	C587.8710938,60.3603516,576.7578125,59.40625,563.7353516,61.8486328z"/>
<path fill="#ED0983" d="M530.7597656,54.6723633c-13.0947266,2.0708008-23.3300781,6.1972656-22.8388672,9.246582
	c0.4882813,3.0488281,11.4775391,3.8520508,24.5644531,1.7924805c13.0683594-2.0473633,23.3164063-6.1972656,22.8427734-9.2456055
	C554.8505859,53.4082031,543.8486328,52.625,530.7597656,54.6723633z"/>
<path fill="#ED0983" d="M503.1787109,50.9008789c-12.8085938,1.902832-22.9707031,4.9624023-22.6806641,6.8588867
	c0.2900391,1.8901367,10.8876953,1.8916016,23.6875-0.0009766c12.7822266-1.8876953,22.9589844-4.9628906,22.6845703-6.8564453
	C526.5957031,49.0043945,515.9833984,49.015625,503.1787109,50.9008789z"/>
<path fill="#ED0983" d="M483.5166016,48.8359375c-12.7773438,2.1083984-22.9960938,4.6850586-22.8076172,5.7729492
	c0.1894531,1.0825195,10.6748047,0.2573242,23.4492188-1.8466797c12.7441406-2.09375,22.9814453-4.6855469,22.8056641-5.7695313
	C506.7900391,45.9023438,496.2900391,46.7368164,483.5166016,48.8359375z"/>
<path fill="#FC0282" d="M679.2763672,73.2729492c-5.8232422,0.0053711-10.5429688,2.6943359-10.5361328,6.0366211
	c-0.0009766,3.3369141,4.7060547,6.0449219,10.5234375,6.050293c5.8046875,0.0092773,10.5322266-2.7099609,10.5322266-6.043457
	C689.7958984,75.9785156,685.0908203,73.2832031,679.2763672,73.2729492z"/>
<path fill="#FC0282" d="M650.1884766,64.5107422c-7.5654297,0.4365234-13.5722656,3.0083008-13.4033203,5.7670898
	c0.1513672,2.7578125,6.4013672,4.6450195,13.9619141,4.2158203c7.5449219-0.421875,13.5556641-3.0205078,13.4013672-5.7729492
	C663.9882813,65.9628906,657.7490234,64.0864258,650.1884766,64.5107422z"/>
<path fill="#FC0282" d="M621.2451172,57.7041016c-9.828125,0.3051758-17.7558594,2.0673828-17.6826172,3.9482422
	c0.0507813,1.8803711,8.0576172,3.1635742,17.8808594,2.862793c9.8056641-0.2973633,17.7314453-2.0717773,17.6787109-3.9516602
	C639.0566406,58.6821289,631.0751953,57.4077148,621.2451172,57.7041016z"/>
<path fill="#FC0282" d="M595.953125,52.109375c-11.4921875,0.2094727-20.8066406,1.3837891-20.7685547,2.6342773
	c0.0205078,1.2456055,9.3535156,2.0917969,20.8398438,1.8857422c11.4716797-0.2045898,20.7783203-1.3857422,20.7587891-2.6342773
	C616.7539063,52.746582,607.4521484,51.9067383,595.953125,52.109375z"/>
<path fill="#FC0282" d="M573.2001953,46.4233398c-11.4941406,0.2832031-20.796875,1.5185547-20.7519531,2.769043
	c0.0263672,1.2451172,9.3662109,2.0307617,20.8515625,1.7519531c11.46875-0.2783203,20.7685547-1.519043,20.7412109-2.7685547
	C594.0029297,46.9272461,584.6923828,46.1503906,573.2001953,46.4233398z"/>
<path fill="#FC0282" d="M555.3681641,44.1547852c-11.4941406,0.003418-20.8222656,0.6860352-20.8105469,1.5268555
	c-0.0039063,0.8408203,9.3134766,1.5263672,20.8007813,1.5263672c11.4755859,0,20.7978516-0.6855469,20.8027344-1.5263672
	C576.1542969,44.8354492,566.8671875,44.1582031,555.3681641,44.1547852z"/>
<path fill="#FC0282" d="M703.2880859,84.2373047c-2.0537109,2.7133789-0.6757813,7.2441406,3.1162109,10.1289063
	c3.7958984,2.890625,8.5400391,3.0439453,10.5966797,0.3417969c2.0761719-2.6953125,0.6640625-7.2529297-3.125-10.1376953
	C710.09375,81.6733398,705.3613281,81.5361328,703.2880859,84.2373047z"/>
<path fill="#FC0282" d="M731.9814453,94.0830078c-1.7666016,1.9975586,0.4453125,6.9125977,5.0019531,10.9936523
	c4.5615234,4.0922852,9.6933594,5.7895508,11.46875,3.8066406c1.8007813-1.9790039-0.4560547-6.9243164-5.0048828-11.0087891
	C738.9013672,93.7851563,733.7773438,92.1040039,731.9814453,94.0830078z"/>
<path fill="#FC0282" d="M760.9658203,105.4306641c-1.6132813,1.7241211,0.7851563,6.6762695,5.4140625,11.0927734
	c4.6425781,4.4228516,9.7060547,6.6113281,11.3300781,4.902832c1.6533203-1.7011719-0.7880859-6.6918945-5.4111328-11.1040039
	C767.6728516,105.8984375,762.6142578,103.7290039,760.9658203,105.4306641z"/>
<path fill="#FC0282" d="M787.1845703,117.5375977c-1.2128906,1.3393555,1.8457031,6.1884766,6.8720703,10.8544922
	c5.0517578,4.6787109,10.1132813,7.3852539,11.3408203,6.059082c1.2519531-1.3154297-1.8466797-6.2006836-6.8789063-10.8662109
	C793.4863281,118.9101563,788.4296875,116.2226563,787.1845703,117.5375977z"/>
<path fill="#FC0282" d="M810.5078125,128.7973633c-0.8486328,0.9477539,2.6972656,5.6425781,7.9609375,10.5087891
	c5.2822266,4.8803711,10.2402344,8.065918,11.1005859,7.1293945c0.8925781-0.9208984-2.7001953-5.6523438-7.9638672-10.5175781
	C816.3330078,131.0424805,811.3876953,127.8740234,810.5078125,128.7973633z"/>
<path fill="#FC0282" d="M831.3115234,141.4609375c-0.6503906,0.8076172,4.0664063,5.9326172,10.5830078,11.4824219
	c6.5400391,5.5668945,12.3652344,9.4194336,13.0341797,8.6279297c0.703125-0.7744141-4.0644531-5.9477539-10.5859375-11.4936523
	C837.8085938,144.5175781,832.0058594,140.6806641,831.3115234,141.4609375z"/>
<path fill="#FC0282" d="M680.9072266,64.4931641c-5.1464844-0.840332-9.5605469-0.0712891-9.8476563,1.7402344
	c-0.296875,1.800293,3.6240234,3.9511719,8.7626953,4.7998047c5.1318359,0.8486328,9.5546875,0.0610352,9.8525391-1.7397461
	C689.9716797,67.4824219,686.0507813,65.3427734,680.9072266,64.4931641z"/>
<path fill="#FC0282" d="M699.6474609,71.1264648c-3.5947266-0.9355469-6.8095703-0.5654297-7.1767578,0.8544922
	c-0.3681641,1.4077148,2.2382813,3.3178711,5.8251953,4.262207c3.5869141,0.9448242,6.8115234,0.5571289,7.1796875-0.8486328
	C705.8496094,73.9755859,703.2392578,72.074707,699.6474609,71.1264648z"/>
<path fill="#FC0282" d="M719.9599609,79.0009766c-3.7607422-1.5288086-7.2363281-1.7338867-7.7548828-0.4404297
	c-0.5283203,1.2817383,2.0957031,3.5693359,5.8427734,5.1040039c3.7539063,1.5336914,7.2421875,1.7299805,7.7636719,0.4477539
	C726.3408203,82.8183594,723.7216797,80.5385742,719.9599609,79.0009766z"/>
<path fill="#FC0282" d="M739.359375,86.8325195c-4.0068359-2.3969727-7.796875-3.4584961-8.4511719-2.3510742
	c-0.6591797,1.1000977,2.046875,3.9384766,6.0439453,6.3442383c4,2.4023438,7.8007813,3.4580078,8.4570313,2.3608398
	C746.0751953,92.0786133,743.3710938,89.2436523,739.359375,86.8325195z"/>
<path fill="#FC0282" d="M760.125,96.2485352c-5.1142578-2.9741211-9.6230469-4.7807617-10.0644531-4.0063477
	c-0.4423828,0.7651367,3.3349609,3.7993164,8.4326172,6.7763672c5.1025391,2.9770508,9.6289063,4.7749023,10.0664063,4.0141602
	C769.0087891,102.2617188,765.2373047,99.2333984,760.125,96.2485352z"/>
<path fill="#FC0282" d="M782.2607422,108.0195313c-5.0830078-3.4521484-9.5556641-5.7529297-9.9833984-5.1083984
	c-0.4257813,0.6308594,3.3369141,3.9462891,8.4091797,7.3994141c5.0693359,3.4526367,9.5605469,5.7480469,9.9794922,5.1191406
	C791.0976563,114.7910156,787.3378906,111.4833984,782.2607422,108.0195313z"/>
<path fill="#FC0282" d="M660.4462891,59.3168945c-4.7958984-0.902832-8.8515625-0.7885742-9.0439453,0.2851563
	c-0.203125,1.059082,3.515625,2.6611328,8.2978516,3.5742188c4.7890625,0.9101563,8.8544922,0.7851563,9.0527344-0.2773438
	C668.9599609,61.8295898,665.2431641,60.2304688,660.4462891,59.3168945z"/>
<path fill="#FC0282" d="M638.9013672,54.2099609c-6.5849609-0.6660156-12.0117188-0.3525391-12.1113281,0.7353516
	c-0.109375,1.0712891,5.125,2.4941406,11.6835938,3.175293c6.5712891,0.6782227,12.0117188,0.3510742,12.1181641-0.7241211
	C650.7070313,56.3129883,645.4765625,54.8930664,638.9013672,54.2099609z"/>
<g>
	<path fill="#F40082" d="M466.7070313,528.6494141v27.9873047h-19.3017578c-2.6210938,0-4.4775391,0.4941406-5.5722656,1.4746094
		c-1.0917969,0.9824219-1.6386719,2.6396484-1.6386719,4.9716797c0,2.6396484,0.5576172,4.375,1.6748047,5.2011719
		c1.1162109,0.8291016,3.3974609,1.2431641,6.8457031,1.2431641h19.8886719v35.9091797h-23.2382813
		c-10.9257813,0-19.2773438-3.2988281-25.0566406-9.8974609c-5.7773438-6.5996094-8.6689453-16.1279297-8.6689453-28.5869141
		v-49.2607422c0-12.0302734,2.7314453-21.3603516,8.1962891-27.9882813
		c5.4638672-6.6308594,13.1455078-9.9453125,23.0537109-9.9453125h25.7138672v36.0917969h-18.8681641
		c-5.0966797,0-7.6464844,2.0888672-7.6464844,6.2607422c0,2.4570313,0.6035156,4.1591797,1.8203125,5.109375
		c1.2138672,0.9521484,3.375,1.4296875,6.4814453,1.4296875H466.7070313z"/>
	<path fill="#F40082" d="M557.0253906,479.7578125l-43.3359375,132.8613281L470.640625,479.7578125h34.2333984l9.1054688,39.2236328
		l10.0507813-39.2236328H557.0253906z"/>
	<path fill="#F40082" d="M616.5380859,528.6494141v27.9873047h-19.3046875c-2.6210938,0-4.4775391,0.4941406-5.5703125,1.4746094
		c-1.0947266,0.9824219-1.6396484,2.6396484-1.6396484,4.9716797c0,2.6396484,0.5566406,4.375,1.6748047,5.2011719
		c1.1152344,0.8291016,3.3974609,1.2431641,6.8457031,1.2431641h19.8876953v35.9091797h-23.2363281
		c-10.9287109,0-19.2783203-3.2988281-25.0585938-9.8974609c-5.7783203-6.5996094-8.6669922-16.1279297-8.6669922-28.5869141
		v-49.2607422c0-12.0302734,2.7324219-21.3603516,8.1953125-27.9882813
		c5.4638672-6.6308594,13.1474609-9.9453125,23.0537109-9.9453125h25.7128906v36.0917969h-18.8662109
		c-5.0986328,0-7.6484375,2.0888672-7.6484375,6.2607422c0,2.4570313,0.6054688,4.1591797,1.8193359,5.109375
		c1.2138672,0.9521484,3.375,1.4296875,6.4824219,1.4296875H616.5380859z"/>
	<path fill="#F40082" d="M633.3632813,605.4365234v-81.5761719c0-14.3017578,3.3837891-25.7480469,10.1582031-34.3417969
		c6.7734375-8.5947266,15.7939453-12.8916016,27.0585938-12.8916016c11.2197266,0,19.8017578,4.1757813,25.7470703,12.5224609
		c5.9521484,8.3476563,8.9238281,20.3457031,8.9238281,36.0009766v80.2861328h-29.5703125v-80.2861328
		c0-7.6728516-2.1621094-11.5097656-6.4824219-11.5097656c-4.1777344,0-6.2675781,3.8369141-6.2675781,11.5097656v80.2861328
		H633.3632813z"/>
	<path fill="#F40082" d="M766.5078125,515.8496094v89.5869141h-29.5693359v-89.5869141h-22.6552734v-36.0917969h74.8056641
		v36.0917969H766.5078125z"/>
	<path fill="#F40082" d="M846.7080078,479.2041016v35.8193359c-2.1425781-0.9238281-3.7890625-1.3828125-4.9580078-1.3828125
		c-2.2285156,0-4.1503906,1.0439453-5.75,3.1318359c-1.6035156,2.0849609-2.40625,4.6015625-2.40625,7.546875
		c0,2.5195313,0.8740234,5.7099609,2.6220703,9.5761719l2.2587891,4.9697266
		c4.0791016,8.9638672,6.1191406,17.6220703,6.1191406,25.96875c0,12.2138672-3.4384766,22.5566406-10.3085938,31.0263672
		c-6.8701172,8.4736328-15.2568359,12.7080078-25.1660156,12.7080078c-4.7578125,0-9.46875-1.3828125-14.1298828-4.1455078
		v-36.3691406c2.8164063,2.2734375,5.3173828,3.4072266,7.5029297,3.4072266c2.5732422,0,4.71875-0.9345703,6.4443359-2.8085938
		c1.7246094-1.8710938,2.5888672-4.21875,2.5888672-7.0410156c0-1.8447266-1.3857422-5.8613281-4.1542969-12.0625
		c-4.4179688-9.8222656-6.625-19.6435547-6.625-29.4648438c0-11.8447266,3.3369141-22.0498047,10.0146484-30.6132813
		c6.6767578-8.5625,14.6533203-12.84375,23.9248047-12.84375
		C838.7666016,476.6269531,842.7695313,477.4863281,846.7080078,479.2041016z"/>
	<path fill="#F40082" d="M914.7353516,528.6494141v27.9873047h-19.2988281c-2.6230469,0-4.4794922,0.4941406-5.5751953,1.4746094
		c-1.0908203,0.9824219-1.6376953,2.6396484-1.6376953,4.9716797c0,2.6396484,0.5576172,4.375,1.6738281,5.2011719
		c1.1201172,0.8291016,3.3984375,1.2431641,6.8476563,1.2431641h19.8876953v35.9091797h-23.2382813
		c-10.9238281,0-19.2753906-3.2988281-25.0556641-9.8974609c-5.78125-6.5996094-8.6679688-16.1279297-8.6679688-28.5869141
		v-49.2607422c0-12.0302734,2.7304688-21.3603516,8.1933594-27.9882813
		c5.4619141-6.6308594,13.1484375-9.9453125,23.0546875-9.9453125h25.7138672v36.0917969h-18.8681641
		c-5.0966797,0-7.6464844,2.0888672-7.6464844,6.2607422c0,2.4570313,0.6054688,4.1591797,1.8193359,5.109375
		c1.2138672,0.9521484,3.375,1.4296875,6.4824219,1.4296875H914.7353516z"/>
</g>
</svg>
