<?xml version="1.0" encoding="utf-8"?>
<!-- Generator: Adobe Illustrator 16.0.0, SVG Export Plug-In . SVG Version: 6.00 Build 0)  -->
<!DOCTYPE svg PUBLIC "-//W3C//DTD SVG 1.1//EN" "http://www.w3.org/Graphics/SVG/1.1/DTD/svg11.dtd">
<svg version="1.1" id="Capa_1" xmlns="http://www.w3.org/2000/svg" xmlns:xlink="http://www.w3.org/1999/xlink" x="0px" y="0px"
	 width="272.6669922px" height="263.3330078px" viewBox="0 0 272.6669922 263.3330078"
	 enable-background="new 0 0 272.6669922 263.3330078" xml:space="preserve">
<ellipse transform="matrix(-0.8792039 -0.4764458 0.4764458 -0.8792039 129.1336212 212.7898254)" fill="#DD0A90" cx="91.541748" cy="90.0249023" rx="7.1134243" ry="8.6979723"/>
<ellipse transform="matrix(-0.879207 -0.4764401 0.4764401 -0.879207 94.5656891 189.3006744)" fill="#DD0A90" cx="71.2797852" cy="82.6625977" rx="6.6144037" ry="9.5425148"/>
<ellipse transform="matrix(-0.8792535 -0.4763542 0.4763542 -0.8792535 65.7707977 168.1442719)" fill="#DD0A90" cx="54.1960449" cy="75.7363281" rx="4.7695041" ry="8.2127266"/>
<ellipse transform="matrix(-0.8792662 -0.4763307 0.4763307 -0.8792662 42.8003998 152.8201294)" fill="#DD0A90" cx="40.7675781" cy="70.9858398" rx="3.3130875" ry="7.6519976"/>
<ellipse transform="matrix(-0.8563228 -0.5164409 0.5164409 -0.8563228 22.3497715 141.5240021)" fill="#DD0A90" cx="30.8613281" cy="67.6530762" rx="1.8999295" ry="6.8349633"/>
<ellipse transform="matrix(-0.8562279 -0.5165983 0.5165983 -0.8562279 14.4472084 134.7775726)" fill="#DD0A90" cx="25.9782715" cy="65.378418" rx="0.9725959" ry="5.9545245"/>
<ellipse transform="matrix(-0.9205661 -0.3905867 0.3905867 -0.9205661 99.3423615 231.1984253)" fill="#C21296" cx="73.1806641" cy="105.4975586" rx="6.4418793" ry="9.1999741"/>
<ellipse transform="matrix(-0.9548478 -0.2970954 0.2970954 -0.9548478 76.8242645 207.7088623)" fill="#C21296" cx="54.1958008" cy="98.0166016" rx="6.1533246" ry="9.3689003"/>
<ellipse transform="matrix(-0.932691 -0.3606763 0.3606763 -0.932691 40.996685 191.4827728)" fill="#C21296" cx="38.3654785" cy="91.9160156" rx="4.4417949" ry="8.7965288"/>
<ellipse transform="matrix(-0.9327047 -0.360641 0.360641 -0.9327047 21.0121746 177.9018097)" fill="#C21296" cx="27.104248" cy="86.9904785" rx="2.6963439" ry="7.7351027"/>
<ellipse transform="matrix(-0.9326656 -0.3607422 0.3607422 -0.9326656 8.4029999 168.6783295)" fill="#C21296" cx="19.9438477" cy="83.5549316" rx="1.5491341" ry="6.7681179"/>
<ellipse transform="matrix(-0.9116939 -0.41087 0.41087 -0.9116939 -2.9867859 162.0865784)" fill="#C21296" cx="15.9248047" cy="81.3642578" rx="0.6025229" ry="6.1662502"/>
<path fill="#A41CA2" d="M69.0209961,130.0078125c-0.8452148,4.8095703,1.6430664,9.2641602,5.5546875,9.9506836
	c3.9155273,0.6865234,7.7700195-2.6533203,8.6132813-7.4628906c0.8452148-4.8071289-1.6420898-9.2626953-5.5546875-9.9501953
	C73.7207031,121.8588867,69.8642578,125.2001953,69.0209961,130.0078125z"/>
<ellipse transform="matrix(-0.9849339 -0.1729314 0.1729314 -0.9849339 90.1418686 254.6741333)" fill="#A41CA2" cx="56.1647949" cy="123.4104004" rx="6.4588823" ry="9.4358349"/>
<ellipse transform="matrix(-0.9723259 -0.2336287 0.2336287 -0.9723259 50.2121849 236.9917603)" fill="#A41CA2" cx="39.142334" cy="115.5219727" rx="4.8362308" ry="8.5340471"/>
<path fill="#A41CA2" d="M22.2373047,108.6923828c-0.9038086,4.1796875-0.1708984,7.8833008,1.6337891,8.2729492
	c1.8066406,0.3881836,4.0024414-2.6791992,4.9042969-6.8598633c0.9042969-4.1757813,0.1728516-7.878418-1.6328125-8.2700195
	C25.3354492,101.4458008,23.1391602,104.515625,22.2373047,108.6923828z"/>
<path fill="#A41CA2" d="M13.7543945,104.5297852c-0.6118164,3.7880859-0.1337891,7.015625,1.065918,7.2084961
	c1.2011719,0.190918,2.6674805-2.7202148,3.2792969-6.5083008c0.6103516-3.784668,0.1323242-7.0097656-1.0668945-7.2045898
	C15.8334961,97.8330078,14.3662109,100.7446289,13.7543945,104.5297852z"/>
<path fill="#A41CA2" d="M10.1987305,101.590332c-0.7548828,3.3505859-0.9472656,6.1611328-0.4311523,6.2773438
	c0.5170898,0.1142578,1.5463867-2.5058594,2.2998047-5.8564453c0.7543945-3.3476563,0.9467773-6.15625,0.4306641-6.2744141
	C11.9814453,95.6235352,10.9511719,98.2426758,10.1987305,101.590332z"/>
<path fill="#A41CA2" d="M74.9047852,154.8994141c-0.1586914,4.4814453,2.5952148,8.2158203,6.1489258,8.3398438
	c3.5576172,0.1269531,6.5664063-3.4023438,6.7236328-7.8857422c0.1591797-4.4785156-2.5947266-8.2133789-6.1489258-8.3388672
	C78.0727539,146.8896484,75.0625,150.4199219,74.9047852,154.8994141z"/>
<path fill="#A41CA2" d="M54.7524414,146.597168c-0.0029297,4.5732422,2.8798828,8.2817383,6.4365234,8.2827148
	c3.5595703,0.0019531,6.4423828-3.7026367,6.4433594-8.2788086c0.0029297-4.5708008-2.8798828-8.2802734-6.4355469-8.28125
	C57.6381836,138.3193359,54.753418,142.0249023,54.7524414,146.597168z"/>
<path fill="#A41CA2" d="M37.5834961,138.3510742c-0.0029297,4.9589844,2.5146484,8.9804688,5.6210938,8.9814453
	c3.1088867,0.0019531,5.6279297-4.015625,5.6289063-8.9785156c0.0029297-4.956543-2.5141602-8.9794922-5.6201172-8.9799805
	C40.1054688,129.3735352,37.5844727,133.3920898,37.5834961,138.3510742z"/>
<path fill="#8E26AC" d="M24.2363281,131.6196289c-0.0024414,4.534668,1.7919922,8.2119141,4.0063477,8.2124023
	c2.2158203,0.0014648,4.012207-3.671875,4.0131836-8.2104492c0.0024414-4.5322266-1.7915039-8.2109375-4.0058594-8.2109375
	C26.0351563,123.4106445,24.2373047,127.0849609,24.2363281,131.6196289z"/>
<path fill="#8E26AC" d="M14.7231445,125.75c-0.222168,4.3339844,0.8212891,7.9086914,2.3271484,7.9853516
	c1.5068359,0.0771484,2.90625-3.3706055,3.1269531-7.7084961c0.2211914-4.3310547-0.8203125-7.9077148-2.3266602-7.984375
	C16.3442383,117.9672852,14.9433594,121.4160156,14.7231445,125.75z"/>
<path fill="#8E26AC" d="M8.7963867,121.7006836c-0.1977539,3.8574219,0.3886719,7.0209961,1.3066406,7.0678711
	c0.9194336,0.046875,1.8227539-3.0385742,2.019043-6.8994141c0.1967773-3.8549805-0.3876953-7.0209961-1.3066406-7.0673828
	C9.8969727,114.7563477,8.9921875,117.84375,8.7963867,121.7006836z"/>
<path fill="#8E26AC" d="M6.1689453,118.8520508c-0.2773438,3.2460938-0.152832,5.9047852,0.277832,5.9414063
	c0.4306641,0.0371094,1.003418-2.5605469,1.28125-5.8095703c0.2768555-3.2436523,0.152832-5.9052734-0.2773438-5.9423828
	C7.0200195,113.0068359,6.4458008,115.605957,6.1689453,118.8520508z"/>
<path fill="#772AB3" d="M61.3613281,172.2285156c1.0302734,4.3535156,4.4296875,7.2763672,7.5888672,6.5263672
	c3.1650391-0.7480469,4.890625-4.8828125,3.859375-9.2382813c-1.0302734-4.3505859-4.4296875-7.2734375-7.5908203-6.5244141
	C62.0566406,163.7431641,60.3300781,167.8779297,61.3613281,172.2285156z"/>
<path fill="#752BB3" d="M43.3881836,163.3710938c0.7485352,4.7460938,3.8359375,8.2041016,6.8925781,7.7197266
	c3.0620117-0.4804688,4.9335938-4.71875,4.1845703-9.4677734c-0.7480469-4.7441406-3.8359375-8.2021484-6.8935547-7.71875
	C44.5117188,154.3886719,42.6396484,158.6269531,43.3881836,163.3710938z"/>
<path fill="#752BB3" d="M29.277832,155.8916016c0.8427734,4.4433594,3.3769531,7.6953125,5.6572266,7.2617188
	c2.2861328-0.4316406,3.4521484-4.3847656,2.6083984-8.8300781c-0.8427734-4.4423828-3.3769531-7.6958008-5.6591797-7.2617188
	C29.6010742,147.496582,28.4350586,151.449707,29.277832,155.8916016z"/>
<path fill="#752BB3" d="M18.2250977,149.1791992c0.472168,4.0996094,2.1757813,7.2709961,3.8027344,7.0834961
	c1.6318359-0.1865234,2.5678711-3.6616211,2.0952148-7.7631836c-0.472168-4.0981445-2.1757813-7.2719727-3.8041992-7.0825195
	C18.6894531,141.6064453,17.753418,145.0810547,18.2250977,149.1791992z"/>
<ellipse transform="matrix(-0.99819 0.0601383 -0.0601383 -0.99819 34.2241478 285.817627)" fill="#752BB3" cx="12.8110352" cy="143.4238281" rx="1.8187215" ry="6.7161345"/>
<ellipse transform="matrix(-0.9995729 0.0292232 -0.0292232 -0.9995729 19.8361588 279.5914307)" fill="#752BB3" cx="7.875" cy="139.9406738" rx="1.061" ry="5.7052402"/>
<ellipse transform="matrix(-0.9979807 0.0635178 -0.0635178 -0.9979807 197.1161499 391.7471313)" fill="#6034BB" cx="92.3310547" cy="199.0068359" rx="5.3349915" ry="5.9553013"/>
<path fill="#6034BB" d="M68.6733398,193.0703125c1.3481445,3.3984375,4.7353516,5.2470703,7.5595703,4.1230469
	c2.8291016-1.1201172,4.0239258-4.7851563,2.6748047-8.1865234c-1.3505859-3.3994141-4.7348633-5.2460938-7.5620117-4.1230469
	C68.5185547,186.0058594,67.3237305,189.671875,68.6733398,193.0703125z"/>
<ellipse transform="matrix(-0.9288177 0.370537 -0.370537 -0.9288177 176.9480743 332.8744507)" fill="#6034BB" cx="56.5004883" cy="183.4335938" rx="4.9310837" ry="7.572166"/>
<path fill="#6034BB" d="M36.7851563,177.1728516c1.3564453,4.3066406,4.2890625,7.2226563,6.5419922,6.5087891
	c2.2568359-0.7080078,2.984375-4.7744141,1.6259766-9.0830078c-1.3603516-4.3076172-4.2900391-7.2216797-6.5449219-6.5097656
	C36.1513672,168.8027344,35.4267578,172.8701172,36.7851563,177.1728516z"/>
<path fill="#6034BB" d="M24.9404297,169.7783203c1.0688477,4.1337891,3.3076172,7.1328125,4.9956055,6.6923828
	c1.690918-0.4345703,2.1933594-4.1376953,1.1235352-8.2744141c-1.0712891-4.1347656-3.3081055-7.1318359-4.9975586-6.6933594
	C24.3710938,161.9423828,23.8710938,165.6474609,24.9404297,169.7783203z"/>
<ellipse transform="matrix(-0.9736005 0.2282588 -0.2282588 -0.9736005 73.860527 318.5435181)" fill="#6034BB" cx="18.5095215" cy="163.5429688" rx="2.0920954" ry="7.4822507"/>
<ellipse transform="matrix(-0.9826515 0.1854617 -0.1854617 -0.9826515 53.6355591 312.3568115)" fill="#6034BB" cx="12.2084961" cy="158.6870117" rx="1.1557934" ry="6.6329589"/>
<ellipse transform="matrix(-0.9826686 0.1853708 -0.1853708 -0.9826686 46.650177 306.657959)" fill="#3F208A" cx="8.989502" cy="155.5097656" rx="0.7217372" ry="6.4476051"/>
<path fill="#F20082" d="M35.5263672,48.2539063c-1.9956055,2.6132813-3.3974609,4.8969727-3.1333008,5.1005859
	c0.2666016,0.2011719,2.097168-1.753418,4.0927734-4.3676758c1.9941406-2.6132813,3.3955078-4.8950195,3.1303711-5.097168
	C39.3525391,43.6865234,37.5209961,45.6396484,35.5263672,48.2539063z"/>
<ellipse transform="matrix(-0.7708107 -0.6370642 0.6370642 -0.7708107 38.7346497 113.0674438)" fill="#E60D85" cx="39.7058105" cy="49.5661621" rx="1.5187311" ry="6.8341837"/>
<ellipse transform="matrix(-0.7470906 -0.6647223 0.6647223 -0.7470906 47.848465 121.6132965)" fill="#F00487" cx="47.0595703" cy="51.7041016" rx="2.6201906" ry="7.6041384"/>
<ellipse transform="matrix(-0.7545246 -0.6562718 0.6562718 -0.7545246 65.439827 135.5863495)" fill="#F60285" cx="58.0776367" cy="55.5544434" rx="4.2167492" ry="8.3701963"/>
<ellipse transform="matrix(-0.7545058 -0.6562934 0.6562934 -0.7545058 88.0363617 154.0985107)" fill="#F40082" cx="72.8393555" cy="60.5837402" rx="5.7447839" ry="9.221899"/>
<ellipse transform="matrix(-0.7545064 -0.6562927 0.6562927 -0.7545064 115.6938553 177.0461121)" fill="#F40082" cx="90.9599609" cy="66.8847656" rx="6.1498971" ry="8.8015585"/>
<path fill="#F40082" d="M106.3779297,69.6176758c-2.8945313,3.3925781-3.0166016,8.043457-0.2724609,10.3847656
	c2.7490234,2.3432617,7.3232422,1.4931641,10.2158203-1.902832c2.8964844-3.3925781,3.0175781-8.0444336,0.2734375-10.3857422
	C113.8476563,65.3691406,109.2705078,66.2197266,106.3779297,69.6176758z"/>
<path fill="#FF0185" d="M106.0463867,50.1831055c-3.2509766,2.8608398-4.1557617,7.1499023-2.0195313,9.5766602
	c2.1401367,2.4301758,6.5083008,2.0825195,9.7578125-0.7822266c3.2539063-2.8598633,4.1577148-7.1489258,2.0209961-9.5771484
	C113.6679688,46.9702148,109.2973633,47.3178711,106.0463867,50.1831055z"/>
<path fill="#FF0083" d="M88.4536133,44.1494141c-3.7680664,3.1123047-5.2744141,7.5136719-3.362793,9.8271484
	c1.9150391,2.3164063,6.5200195,1.6728516,10.2875977-1.4433594c3.7709961-3.1123047,5.2763672-7.5126953,3.3642578-9.828125
	C96.8305664,40.3886719,92.222168,41.0322266,88.4536133,44.1494141z"/>
<ellipse transform="matrix(-0.6130519 -0.7900426 0.7900426 -0.6130519 88.1308975 129.774231)" fill="#FF0083" cx="75.8459473" cy="43.3046875" rx="4.1285348" ry="8.2727671"/>
<ellipse transform="matrix(-0.6587595 -0.7523535 0.7523535 -0.6587595 76.3560562 113.4082336)" fill="#EF0280" cx="63.8969727" cy="39.3879395" rx="2.9137084" ry="7.387989"/>
<ellipse transform="matrix(-0.6588417 -0.7522816 0.7522816 -0.6588417 62.7525177 102.9947739)" fill="#FF0086" cx="54.7302246" cy="37.2683105" rx="1.8968985" ry="6.8857045"/>
<ellipse transform="matrix(-0.6888512 -0.7249027 0.7249027 -0.6888512 57.4144249 96.8128433)" fill="#FF0086" cx="49.4846191" cy="36.0844727" rx="1.0090253" ry="5.8958597"/>
<ellipse transform="matrix(-0.6605914 -0.7507457 0.7507457 -0.6605914 207.3783112 191.0399323)" fill="#FB0081" cx="146.873291" cy="48.6425781" rx="5.277956" ry="6.0557728"/>
<path fill="#FA0082" d="M126.3105469,37.6669922c-3.1259766,1.8632813-4.5092773,5.3095703-3.0864258,7.6943359
	c1.425293,2.3896484,5.112793,2.8144531,8.237793,0.9492188c3.1293945-1.8632813,4.5117188-5.3095703,3.0883789-7.6962891
	C133.1279297,36.2255859,129.4384766,35.7998047,126.3105469,37.6669922z"/>
<path fill="#FF0081" d="M109.1713867,32.4467773c-3.5302734,2.2231445-5.2509766,5.8398438-3.8398438,8.0776367
	c1.4130859,2.2436523,5.4169922,2.2597656,8.9462891,0.0366211c3.5341797-2.2202148,5.2529297-5.8383789,3.8417969-8.0800781
	C116.7094727,30.2402344,112.7026367,30.2216797,109.1713867,32.4467773z"/>
<path fill="#F10482" d="M93.8447266,28.0878906c-3.9057617,2.4594727-6.0708008,6.0449219-4.8325195,8.0083008
	c1.2402344,1.9682617,5.4082031,1.5703125,9.3129883-0.8891602c3.909668-2.4570313,6.0732422-6.0439453,4.8349609-8.0107422
	C101.9228516,25.2304688,97.7514648,25.6259766,93.8447266,28.0878906z"/>
<path fill="#FF0189" d="M81.7563477,25.4462891c-3.7587891,2.1357422-6.1435547,5.0332031-5.3242188,6.4707031
	c0.8198242,1.4414063,4.5283203,0.8789063,8.2856445-1.2578125c3.762207-2.1337891,6.1464844-5.0322266,5.3276367-6.4726563
	C89.2275391,22.7470703,85.5166016,23.3085938,81.7563477,25.4462891z"/>
<path fill="#F9007F" d="M72.3017578,23.6557617c-3.331543,2.0146484-5.5532227,4.4414063-4.9604492,5.4179688
	c0.59375,0.9794922,3.7734375,0.1425781,7.1035156-1.8730469c3.3359375-2.0126953,5.5566406-4.4404297,4.9643555-5.4199219
	S75.6352539,21.6401367,72.3017578,23.6557617z"/>
<path fill="#F9007F" d="M66.3378906,23.4707031c-3.2314453,2.1704102-5.6132813,4.2856445-5.3154297,4.7260742
	c0.296875,0.4394531,3.1552734-0.9614258,6.3867188-3.1313477c3.2363281-2.1704102,5.6162109-4.2871094,5.3203125-4.7280273
	S69.5722656,21.2993164,66.3378906,23.4707031z"/>
<path fill="#F9007F" d="M62.9555664,23.6948242c-2.7958984,1.8774414-4.9101563,3.6279297-4.71875,3.909668
	c0.190918,0.2817383,2.6098633-1.0102539,5.4057617-2.887207c2.7993164-1.8779297,4.9121094-3.6289063,4.722168-3.9121094
	C68.1748047,20.5224609,65.753418,21.8164063,62.9555664,23.6948242z"/>
<ellipse transform="matrix(-0.997981 0.0635138 -0.0635138 -0.997981 206.5618591 427.8652344)" fill="#5236BF" cx="96.4802246" cy="217.2158203" rx="4.9663262" ry="4.7996731"/>
<ellipse transform="matrix(-0.9345781 0.3557581 -0.3557581 -0.9345781 230.365509 378.2650146)" fill="#5236BF" cx="80.4023438" cy="210.3139648" rx="4.7063351" ry="5.7745166"/>
<path fill="#5236BF" d="M60.7651367,205.1826172c1.5351563,3.2558594,4.5244141,5.0722656,6.6699219,4.0566406
	c2.1484375-1.0117188,2.6445313-4.4716797,1.1064453-7.7275391c-1.5361328-3.2519531-4.5214844-5.0683594-6.6699219-4.0537109
	C59.7231445,198.4736328,59.2290039,201.9345703,60.7651367,205.1826172z"/>
<path fill="#5236BF" d="M46.4350586,198.1005859c1.7700195,3.7539063,4.7177734,6.0839844,6.5766602,5.203125
	c1.8623047-0.8769531,1.9350586-4.6298828,0.1616211-8.3837891c-1.7714844-3.75-4.715332-6.0791016-6.5766602-5.2001953
	C44.7353516,190.5996094,44.6640625,194.3554688,46.4350586,198.1005859z"/>
<path fill="#4C36B7" d="M34.1904297,190.9013672c1.4970703,3.7021484,3.9174805,6.2138672,5.4003906,5.6113281
	c1.4853516-0.6005859,1.4746094-4.0859375-0.0253906-7.7871094c-1.4975586-3.6962891-3.9150391-6.2080078-5.3994141-5.6064453
	C32.6811523,183.7207031,32.6933594,187.2089844,34.1904297,190.9013672z"/>
<path fill="#5137BE" d="M25.0698242,184.6328125c1.3466797,3.328125,3.2626953,5.6914063,4.2758789,5.2792969
	c1.0151367-0.4101563,0.7460938-3.4384766-0.6025391-6.765625c-1.3461914-3.3232422-3.2602539-5.6865234-4.2744141-5.2753906
	C23.4541016,178.2822266,23.7246094,181.3134766,25.0698242,184.6328125z"/>
<path fill="#4D33C5" d="M18.7314453,179.2744141c1.2495117,3.3671875,2.7382813,5.9169922,3.3227539,5.6992188
	c0.5864258-0.2167969,0.0493164-3.1201172-1.2011719-6.484375c-1.2485352-3.3613281-2.7363281-5.9121094-3.3217773-5.6943359
	C16.9453125,173.0117188,17.4838867,175.9179688,18.7314453,179.2744141z"/>
<path fill="#4D33C5" d="M15.0966797,175.6416016c1.0439453,2.7578125,2.1586914,4.8886719,2.4892578,4.7636719
	c0.3310547-0.125-0.246582-2.4609375-1.2910156-5.2167969c-1.0429688-2.7519531-2.1572266-4.8847656-2.487793-4.7578125
	C13.4755859,170.5537109,14.0546875,172.8916016,15.0966797,175.6416016z"/>
<ellipse transform="matrix(-0.959154 0.2828847 -0.2828847 -0.959154 316.676178 433.8284607)" fill="#4238C4" cx="127.0175781" cy="239.7768555" rx="3.9371858" ry="2.1535022"/>
<path fill="#4238C4" d="M110.1591797,236.9873047c0.53125,1.3427734,2.671875,1.7539063,4.7724609,0.9140625
	c2.1064453-0.8339844,3.3789063-2.5976563,2.8466797-3.9394531c-0.5322266-1.3398438-2.6689453-1.7519531-4.7744141-0.9140625
	C110.8994141,233.8837891,109.6269531,235.6494141,110.1591797,236.9873047z"/>
<path fill="#4238C4" d="M96.4575195,231.6992188c0.7001953,1.7685547,2.8491211,2.5771484,4.7895508,1.7988281
	c1.9472656-0.7695313,2.9536133-2.8271484,2.2524414-4.5947266c-0.7016602-1.7646484-2.8461914-2.5742188-4.7919922-1.7998047
	C96.7626953,227.8759766,95.7558594,229.9365234,96.4575195,231.6992188z"/>
<path fill="#4238C4" d="M83.3017578,227.3134766c1.75,1.8232422,4.3496094,2.1728516,5.7919922,0.7753906
	c1.453125-1.390625,1.2070313-3.9960938-0.5429688-5.8183594c-1.7490234-1.8183594-4.34375-2.1699219-5.7929688-0.7744141
	C81.3076172,222.8876953,81.5546875,225.4970703,83.3017578,227.3134766z"/>
<path fill="#4238C4" d="M69.1831055,220.6357422c1.5283203,2.4697266,4.0791016,3.6630859,5.6835938,2.6591797
	c1.6147461-0.9960938,1.6787109-3.8046875,0.1503906-6.2734375c-1.5283203-2.4638672-4.0732422-3.6582031-5.6850586-2.65625
	C67.7207031,215.3613281,67.6567383,218.1757813,69.1831055,220.6357422z"/>
<path fill="#4238C4" d="M56.2456055,214.4589844c1.7226563,2.9726563,4.3100586,4.6962891,5.765625,3.8398438
	c1.4658203-0.84375,1.2509766-3.9375-0.4711914-6.9101563c-1.7226563-2.9677734-4.3037109-4.6904297-5.7666016-3.8398438
	C54.3110352,208.3955078,54.5258789,211.4960938,56.2456055,214.4589844z"/>
<path fill="#4238C4" d="M44.6777344,208.0957031c1.9926758,3.4785156,4.625,5.7207031,5.8642578,4.9980469
	c1.2514648-0.7099609,0.644043-4.1064453-1.3491211-7.5849609c-1.9921875-3.4746094-4.6181641-5.7158203-5.8657227-4.9980469
	C42.0795898,201.2226563,42.6884766,204.6269531,44.6777344,208.0957031z"/>
<path fill="#4238C4" d="M35.2543945,202.0859375c1.9296875,3.3691406,4.2641602,5.6640625,5.2011719,5.1142578
	c0.9472656-0.5361328,0.1450195-3.7021484-1.7851563-7.0712891c-1.9296875-3.3652344-4.2592773-5.6582031-5.2026367-5.1152344
	C32.5234375,195.5517578,33.3276367,198.7265625,35.2543945,202.0859375z"/>
<path fill="#4238C4" d="M28.2075195,196.7763672c1.7734375,3.1103516,3.7041016,5.3554688,4.3017578,5.0029297
	c0.6069336-0.3388672-0.3417969-3.1376953-2.1162109-6.2470703c-1.7724609-3.1083984-3.6987305-5.3505859-4.3017578-5.0039063
	C25.4863281,190.8691406,26.4379883,193.6738281,28.2075195,196.7763672z"/>
<path fill="#4238C4" d="M23.3452148,192.4931641c1.6259766,2.8828125,3.2763672,5.0371094,3.6777344,4.8007813
	c0.4101563-0.2255859-0.578125-2.7470703-2.2045898-5.6289063c-1.6254883-2.8808594-3.2719727-5.0332031-3.6782227-4.8007813
	C20.7319336,187.0888672,21.7236328,189.6181641,23.3452148,192.4931641z"/>
<path fill="#3B43D3" d="M35.0209961,208.6796875c1.8574219,2.3085938,3.5708008,4.0166016,3.8193359,3.8076172
	c0.2573242-0.2001953-1.0429688-2.2363281-2.9018555-4.5458984c-1.8564453-2.3037109-3.565918-4.0107422-3.8193359-3.8046875
	C31.8647461,204.3349609,33.1689453,206.3769531,35.0209961,208.6796875z"/>
<path fill="#3B43D3" d="M40.7329102,213.2929688c2.0449219,2.5410156,3.9545898,4.4023438,4.2578125,4.1484375
	c0.3125-0.2431641-1.0952148-2.5048828-3.1416016-5.046875c-2.043457-2.5361328-3.9487305-4.3955078-4.2573242-4.1455078
	C37.2827148,208.4902344,38.6943359,210.7578125,40.7329102,213.2929688z"/>
<path fill="#3B43D3" d="M47.5615234,218.1289063c2.0561523,2.6289063,4.1923828,4.3974609,4.7646484,3.9404297
	c0.5810547-0.4462891-0.6171875-2.9443359-2.675293-5.5751953c-2.0561523-2.6240234-4.1879883-4.390625-4.7661133-3.9375
	C44.3095703,213,45.512207,215.5039063,47.5615234,218.1289063z"/>
<path fill="#3B43D3" d="M56.1005859,223.2333984c2.2724609,2.7382813,4.7568359,4.4316406,5.5410156,3.7714844
	c0.7929688-0.6503906-0.4072266-3.4023438-2.6826172-6.1435547c-2.2734375-2.7353516-4.7519531-4.4267578-5.5429688-3.7685547
	C52.6298828,217.7382813,53.8359375,220.4970703,56.1005859,223.2333984z"/>
<path fill="#3B43D3" d="M66.1103516,228.5927734c1.7412109,2.0976563,3.96875,3.1259766,4.9697266,2.2880859
	c1.0083008-0.8300781,0.4135742-3.2089844-1.3295898-5.3085938c-1.7436523-2.09375-3.965332-3.1220703-4.9731445-2.2851563
	C63.777832,224.1123047,64.3764648,226.4951172,66.1103516,228.5927734z"/>
<path fill="#3B43D3" d="M76.9287109,233.5800781c1.5771484,1.7753906,3.6455078,2.5166016,4.6166992,1.6464844
	c0.9775391-0.8623047,0.4897461-3.0039063-1.0893555-4.7802734c-1.5795898-1.7714844-3.6435547-2.5126953-4.6201172-1.6445313
	C74.8666992,229.6601563,75.3574219,231.8046875,76.9287109,233.5800781z"/>
<path fill="#3B43D3" d="M87.487793,238.6025391c1.2431641,1.4003906,3.300293,1.6025391,4.5947266,0.4482422
	c1.2983398-1.1484375,1.3427734-3.2158203,0.0981445-4.6162109c-1.2460938-1.3945313-3.2993164-1.6005859-4.5986328-0.4462891
	C86.2939453,235.1308594,86.2514648,237.203125,87.487793,238.6025391z"/>
<path fill="#3B43D3" d="M97.753418,241.0087891c-0.0014648,1.3417969,1.4785156,2.4296875,3.3081055,2.4277344
	c1.8295898,0.0058594,3.3129883-1.0800781,3.3134766-2.421875c-0.0043945-1.3408203-1.4794922-2.4267578-3.3134766-2.4287109
	C99.2456055,238.5830078,97.7587891,239.671875,97.753418,241.0087891z"/>
<path fill="#3B43D3" d="M108.2104492,245.0273438c0.1791992,1.0068359,1.9614258,1.53125,3.9829102,1.1669922
	c2.0224609-0.3574219,3.515625-1.4658203,3.3359375-2.4716797c-0.1850586-1.0058594-1.9624023-1.5273438-3.9892578-1.1669922
	C109.5327148,242.9111328,108.0361328,244.0234375,108.2104492,245.0273438z"/>
<path fill="#3B43D3" d="M117.565918,248.4785156c0.1337891,0.7910156,2.0805664,1.1230469,4.3505859,0.7333984
	c2.2705078-0.3828125,4.0009766-1.3369141,3.8671875-2.1279297c-0.1411133-0.7919922-2.0825195-1.1201172-4.3583984-0.734375
	C119.171875,246.7294922,117.4370117,247.6884766,117.565918,248.4785156z"/>
<path fill="#3B43D3" d="M126.7275391,250.6474609c0.0478516,0.4394531,1.8525391,0.6044922,4.0341797,0.3642578
	c2.1821289-0.2382813,3.9101563-0.7871094,3.862793-1.2275391c-0.0541992-0.4404297-1.8544922-0.6025391-4.0415039-0.3642578
	C128.4174805,249.6552734,126.6845703,250.2089844,126.7275391,250.6474609z"/>
<path fill="#3B43D3" d="M134.5644531,252.2177734c0.0385742,0.3554688,1.8369141,0.4482422,4.0180664,0.2011719
	c2.1816406-0.2451172,3.9160156-0.7304688,3.8759766-1.0869141c-0.0444336-0.3574219-1.8388672-0.4462891-4.0249023-0.2001953
	C136.2695313,251.3740234,134.5292969,251.8632813,134.5644531,252.2177734z"/>
<path fill="#3B43D3" d="M141.0429688,253.1240234c0.0175781,0.2597656,2.3876953,0.2949219,5.2958984,0.0761719
	c2.9082031-0.2167969,5.2480469-0.5996094,5.2304688-0.859375c-0.0263672-0.2587891-2.390625-0.2929688-5.3056641-0.0742188
	C143.3779297,252.4794922,141.0302734,252.8681641,141.0429688,253.1240234z"/>
<path fill="#3B43D3" d="M47.4228516,222.0019531c2.0639648,2.1259766,3.8696289,3.7255859,4.0244141,3.5654297
	c0.1640625-0.1523438-1.3789063-2.0019531-3.4433594-4.1289063c-2.0620117-2.1220703-3.8637695-3.7197266-4.0234375-3.5625
	C43.8178711,218.0263672,45.3652344,219.8818359,47.4228516,222.0019531z"/>
<path fill="#3B43D3" d="M53.125,226.1689453c2.1396484,2.0507813,4.0566406,3.5263672,4.2724609,3.2910156
	c0.2255859-0.2265625-1.3300781-2.0771484-3.4716797-4.1259766c-2.1391602-2.0458984-4.0517578-3.5195313-4.2724609-3.2871094
	C49.4306641,222.2705078,50.9912109,224.1259766,53.125,226.1689453z"/>
<path fill="#3B43D3" d="M59.0522461,229.6904297c2.1982422,2.1337891,4.2807617,3.5566406,4.6425781,3.1738281
	c0.3701172-0.3720703-1.1147461-2.4101563-3.3154297-4.5419922c-2.199707-2.1279297-4.277832-3.5488281-4.644043-3.1689453
	C55.3691406,225.5224609,56.859375,227.5654297,59.0522461,229.6904297z"/>
<path fill="#3B43D3" d="M66.6757813,233.7373047c1.8955078,1.8935547,3.765625,3.0986328,4.1665039,2.6894531
	c0.4072266-0.4023438-0.8017578-2.2685547-2.7006836-4.1601563c-1.8984375-1.8857422-3.7641602-3.0888672-4.168457-2.6806641
	C63.5693359,229.9824219,64.7827148,231.8515625,66.6757813,233.7373047z"/>
<path fill="#3B43D3" d="M74.5424805,237.9179688c1.402832,1.46875,3.0307617,2.1943359,3.6274414,1.6181641
	c0.6005859-0.5712891-0.050293-2.2304688-1.4575195-3.6982422c-1.4082031-1.4609375-3.0327148-2.1845703-3.6328125-1.6083984
	C72.4848633,234.7939453,73.1401367,236.4550781,74.5424805,237.9179688z"/>
<path fill="#3B43D3" d="M82.6508789,241.9238281c1.3032227,1.0185547,2.9194336,1.1298828,3.6020508,0.2480469
	c0.6875-0.8798828,0.1875-2.4238281-1.1196289-3.4414063c-1.3110352-1.0078125-2.9243164-1.1181641-3.6108398-0.2353516
	C80.8427734,239.3642578,81.3466797,240.9091797,82.6508789,241.9238281z"/>
<path fill="#3B43D3" d="M92.1171875,245.5507813c1.2788086,0.1738281,2.4296875-0.5166016,2.5639648-1.5371094
	c0.1386719-1.0234375-0.7880859-1.9970703-2.0693359-2.1689453c-1.2802734-0.1621094-2.4277344,0.5263672-2.5649414,1.5517578
	C89.909668,244.4072266,90.8393555,245.3798828,92.1171875,245.5507813z"/>
<path fill="#3B43D3" d="M100.7470703,248.0810547c1.6523438,0,2.9960938-0.5996094,2.9912109-1.3330078
	c0.0024414-0.7373047-1.3408203-1.3359375-2.9970703-1.3339844c-1.6523438,0.0097656-2.9916992,0.6074219-2.9912109,1.3457031
	C97.75,247.4873047,99.0947266,248.0849609,100.7470703,248.0810547z"/>
<path fill="#3B43D3" d="M108.3955078,250.2158203c1.7602539-0.0009766,3.1928711-0.4082031,3.1879883-0.9042969
	c0.003418-0.4990234-1.4272461-0.9013672-3.1928711-0.8994141c-1.7597656,0.0078125-3.1875,0.4121094-3.1875,0.9121094
	C105.2026367,249.8154297,106.6347656,250.2197266,108.3955078,250.2158203z"/>
<path fill="#3B43D3" d="M115.5419922,252.1865234c2.0244141-0.0019531,3.671875-0.3378906,3.6665039-0.7480469
	c0.0043945-0.4111328-1.640625-0.7421875-3.6713867-0.7392578c-2.0239258,0.0078125-3.6660156,0.3417969-3.6665039,0.7539063
	C111.8701172,251.8574219,113.5170898,252.1904297,115.5419922,252.1865234z"/>
<path fill="#3B43D3" d="M121.4697266,253.0820313c2.0874023-0.0029297,3.7861328-0.1777344,3.7807617-0.390625
	c0.0053711-0.2128906-1.690918-0.3828125-3.7851563-0.3798828c-2.0869141,0.0058594-3.7807617,0.1796875-3.7817383,0.3935547
	C117.6831055,252.9150391,119.3808594,253.0859375,121.4697266,253.0820313z"/>
<path fill="#3B43D3" d="M126.9042969,253.7802734c2.0859375-0.0644531,3.7802734-0.2519531,3.7695313-0.4199219
	c0.0009766-0.1699219-1.6982422-0.2539063-3.7910156-0.1894531c-2.0859375,0.0664063-3.7753906,0.2519531-3.7714844,0.421875
	C123.1152344,253.7587891,124.8164063,253.8447266,126.9042969,253.7802734z"/>
<path fill="#FF0086" d="M155.9228516,40.1035156c0.4609375,2.6757813,3.0957031,4.4584961,5.8847656,3.9775391
	c2.7929688-0.4799805,4.6855469-3.0371094,4.2226563-5.7133789c-0.4570313-2.6772461-3.09375-4.4594727-5.8837891-3.9804688
	C157.3535156,34.8671875,155.4619141,37.4248047,155.9228516,40.1035156z"/>
<ellipse transform="matrix(0.5644278 0.8254824 -0.8254824 0.5644278 90.5941925 -104.8367004)" fill="#FF0086" cx="144.6386719" cy="33.4272461" rx="4.5114479" ry="5.7988701"/>
<path fill="#FF0086" d="M131.0981445,31.9677734c3.3554688-1.6323242,5.2402344-4.6796875,4.2041016-6.8066406
	c-1.0356445-2.1298828-4.5947266-2.5356445-7.9516602-0.8994141c-3.3598633,1.6313477-5.2421875,4.6806641-4.2080078,6.8076172
	C124.1782227,33.1992188,127.7363281,33.6030273,131.0981445,31.9677734z"/>
<path fill="#FF0086" d="M116.0581055,26.8198242c3.9619141-1.862793,6.480957-4.8525391,5.6210938-6.6767578
	c-0.859375-1.8276367-4.7666016-1.7998047-8.7294922,0.0664063c-3.9667969,1.8623047-6.4838867,4.8540039-5.6259766,6.6782227
	C108.1826172,28.7148438,112.0888672,28.6865234,116.0581055,26.8198242z"/>
<path fill="#FF0086" d="M103.0351563,22.4580078c3.6162109-1.7460938,6.0131836-4.2773438,5.3457031-5.6542969
	c-0.6645508-1.3798828-4.1357422-1.0849609-7.7543945,0.6630859c-3.6201172,1.7441406-6.0146484,4.2773438-5.3505859,5.6542969
	C95.9423828,24.5,99.4116211,24.2050781,103.0351563,22.4580078z"/>
<path fill="#FF0086" d="M92.5273438,19.1533203c3.4785156-1.7641602,5.9160156-3.9526367,5.4394531-4.8862305
	c-0.4746094-0.9375-3.6777344-0.2675781-7.1582031,1.4985352c-3.4804688,1.7631836-5.9169922,3.9521484-5.4433594,4.887207
	C85.8417969,21.5878906,89.0429688,20.9189453,92.5273438,19.1533203z"/>
<path fill="#FF0086" d="M84.6513672,17.0273438c3.375-1.5693359,5.9023438-3.2958984,5.6401367-3.8544922
	c-0.2607422-0.5615234-3.2070313,0.2558594-6.5844727,1.8261719c-3.3764648,1.5683594-5.902832,3.2958984-5.6425781,3.8554688
	C78.3266602,19.4140625,81.2705078,18.5986328,84.6513672,17.0273438z"/>
<ellipse transform="matrix(0.4211852 0.9069747 -0.9069747 0.4211852 60.2263107 -63.228157)" fill="#FF0086" cx="79.6508789" cy="15.5717773" rx="0.58197" ry="5.9407196"/>
<path fill="#FF0081" d="M169.1416016,31.6176758c1.0458984,1.9501953,3.2832031,2.7895508,4.9951172,1.8706055
	c1.7167969-0.9189453,2.2617188-3.2451172,1.2158203-5.1958008c-1.0449219-1.953125-3.2832031-2.7919922-4.9970703-1.8745117
	C168.6386719,27.3374023,168.0947266,29.6630859,169.1416016,31.6176758z"/>
<ellipse transform="matrix(-0.8990328 0.4378814 -0.4378814 -0.8990328 367.3042603 -14.9522705)" fill="#FF0081" cx="185.3759766" cy="34.8706055" rx="2.6439004" ry="4.0644655"/>
<ellipse transform="matrix(-0.8901173 0.4557315 -0.4557315 -0.8901173 393.0029297 -13.9367447)" fill="#FF0081" cx="198.1816406" cy="40.4106445" rx="2.2874882" ry="4.1517587"/>
<path fill="#FF0081" d="M156.8212891,21.6992188c-2.1142578,1.1523438-3.0087891,3.5947266-1.9951172,5.4492188
	c1.0126953,1.8613281,3.5478516,2.4355469,5.6640625,1.28125c2.1162109-1.1513672,3.0107422-3.59375,2-5.4511719
	C161.4765625,21.1171875,158.9414063,20.5429688,156.8212891,21.6992188z"/>
<path fill="#FF0081" d="M144.1337891,17.4145508c-2.7802734,1.0146484-4.5380859,3.2050781-3.9204102,4.8867188
	c0.6147461,1.6884766,3.3676758,2.2324219,6.1508789,1.2158203c2.7832031-1.0146484,4.5405273-3.2050781,3.9267578-4.8886719
	C149.6757813,16.9399414,146.9228516,16.3950195,144.1337891,17.4145508z"/>
<path fill="#FF0081" d="M131.875,13.7905273c-3.4023438,1.1767578-5.7329102,3.378418-5.1977539,4.9116211
	c0.5302734,1.5410156,3.7197266,1.8339844,7.1259766,0.65625c3.4057617-1.1757813,5.7363281-3.3779297,5.2055664-4.9140625
	C138.4775391,12.9038086,135.2875977,12.6098633,131.875,13.7905273z"/>
<path fill="#FF0081" d="M120.3583984,11.0048828c-3.730957,1.2832031-6.4008789,3.3652344-5.9555664,4.6450195
	c0.4399414,1.2866211,3.8227539,1.2866211,7.5576172,0.0019531c3.734375-1.2827148,6.4042969-3.3647461,5.9638672-4.6479492
	C127.4829102,9.7182617,124.1000977,9.7167969,120.3583984,11.0048828z"/>
<path fill="#FF0081" d="M110.7055664,9.171875c-3.6118164,1.1230469-6.3105469,2.7851563-6.0185547,3.7080078
	c0.2861328,0.9277344,3.4487305,0.7666016,7.0644531-0.3574219c3.6157227-1.1230469,6.3144531-2.7851563,6.0273438-3.7109375
	C117.4912109,7.8847656,114.3291016,8.0449219,110.7055664,9.171875z"/>
<path fill="#FF0081" d="M103.6513672,8.3056641c-3.6074219,1.137207-6.3896484,2.5234375-6.2055664,3.0922852
	c0.1782227,0.5732422,3.25,0.1142578,6.8623047-1.0239258c3.6108398-1.137207,6.3935547-2.5229492,6.2138672-3.0952148
	C110.3422852,6.7075195,107.2705078,7.1655273,103.6513672,8.3056641z"/>
<path fill="#FF0081" d="M98.293457,8.2099609c-3.3886719,0.9960938-6.0556641,2.0913086-5.9487305,2.4428711
	c0.1020508,0.3535156,2.9350586-0.168457,6.3291016-1.1655273c3.3930664-0.9980469,6.0605469-2.0932617,5.9570313-2.4458008
	S101.6938477,7.2099609,98.293457,8.2099609z"/>
<ellipse transform="matrix(-0.784901 0.6196212 -0.6196212 -0.784901 376.8775635 -66.4243164)" fill="#F50483" cx="199.9682617" cy="32.2036133" rx="1.3766915" ry="4.1523428"/>
<ellipse transform="matrix(-0.7565226 0.6539676 -0.6539676 -0.7565226 390.5126343 -72.6703033)" fill="#F50483" cx="208.7841797" cy="36.3603516" rx="1.0236496" ry="3.8741157"/>
<ellipse transform="matrix(-0.7563743 0.6541391 -0.6541391 -0.7563743 407.1905518 -70.2139359)" fill="#F50483" cx="216.6704102" cy="40.7194824" rx="0.8811827" ry="3.873981"/>
<ellipse transform="matrix(-0.746007 0.6659381 -0.6659381 -0.746007 418.0714111 -70.6699219)" fill="#F50483" cx="222.5126953" cy="44.3925781" rx="0.5000582" ry="3.4053178"/>
<ellipse transform="matrix(-0.7161756 0.6979201 -0.6979201 -0.7161756 422.6494751 -76.3268661)" fill="#F50483" cx="226.8447266" cy="47.7763672" rx="0.3477128" ry="2.6601982"/>
<path fill="#ED0983" d="M188.3808594,29.1430664c1.1103516,1.6552734,2.7363281,2.5117188,3.6386719,1.90625
	c0.9013672-0.6035156,0.7353516-2.4355469-0.3710938-4.0908203c-1.1074219-1.6577148-2.7412109-2.5112305-3.6416016-1.9086914
	C187.1035156,25.6542969,187.2734375,27.4833984,188.3808594,29.1430664z"/>
<path fill="#ED0983" d="M177.5048828,25.284668c1.2919922,1.5175781,3.1669922,2.0463867,4.1933594,1.171875
	c1.0263672-0.871582,0.8134766-2.8095703-0.4746094-4.3276367c-1.2890625-1.5209961-3.171875-2.0444336-4.1972656-1.1743164
	C175.9990234,21.828125,176.2158203,23.762207,177.5048828,25.284668z"/>
<path fill="#ED0983" d="M168.5615234,16.6494141c-1.8945313-0.1542969-3.5322266,0.9541016-3.6582031,2.4882813
	c-0.1269531,1.5322266,1.3027344,2.9023438,3.1953125,3.0605469c1.8896484,0.1591797,3.5302734-0.9614258,3.6582031-2.4916992
	C171.8837891,18.1733398,170.4541016,16.8095703,168.5615234,16.6494141z"/>
<path fill="#ED0983" d="M156.9296875,13.1884766c-2.125,0.5600586-3.5498047,2.1464844-3.1796875,3.5556641
	c0.3701172,1.4072266,2.3896484,2.0976563,4.5136719,1.5419922c2.1210938-0.5532227,3.5449219-2.1513672,3.1777344-3.5581055
	C161.0722656,13.3193359,159.0537109,12.6347656,156.9296875,13.1884766z"/>
<path fill="#ED0983" d="M146.7021484,10.2368164c-2.6611328,0.5839844-4.6083984,2.0166016-4.3466797,3.2089844
	c0.262207,1.1914063,2.6279297,1.6875,5.2875977,1.1074219c2.65625-0.578125,4.6049805-2.0195313,4.3452148-3.2109375
	C151.7280273,10.1489258,149.3623047,9.6586914,146.7021484,10.2368164z"/>
<path fill="#ED0983" d="M137.140625,7.8808594c-3.3417969,0.6313477-5.9101563,1.8969727-5.7304688,2.8339844
	c0.1787109,0.9360352,3.0273438,1.1860352,6.3671875,0.5576172c3.3349609-0.6259766,5.90625-1.8984375,5.7314453-2.8349609
	C143.3330078,7.4990234,140.4814453,7.2543945,137.140625,7.8808594z"/>
<path fill="#ED0983" d="M128.6811523,6.0400391c-3.359375,0.53125-5.9848633,1.5898438-5.8588867,2.3720703
	c0.1254883,0.7822266,2.9448242,0.9882813,6.3017578,0.4599609c3.3525391-0.5253906,5.9814453-1.5898438,5.8598633-2.3720703
	C134.8618164,5.7158203,132.0390625,5.5146484,128.6811523,6.0400391z"/>
<path fill="#ED0983" d="M121.605957,5.0722656c-3.2861328,0.4882813-5.8935547,1.2734375-5.8188477,1.7597656
	c0.0742188,0.4848633,2.7929688,0.4853516,6.0766602-0.0004883c3.2792969-0.4838867,5.8901367-1.2729492,5.8198242-1.7587891
	C127.612793,4.5859375,124.890625,4.5888672,121.605957,5.0722656z"/>
<path fill="#ED0983" d="M116.5615234,4.5424805c-3.277832,0.5410156-5.8994141,1.2021484-5.8510742,1.480957
	c0.0488281,0.277832,2.7387695,0.0664063,6.015625-0.4736328c3.2695313-0.5371094,5.8955078-1.2016602,5.8505859-1.4799805
	C122.5322266,3.7900391,119.8383789,4.0043945,116.5615234,4.5424805z"/>
<ellipse fill="#FC0282" cx="166.7797852" cy="12.3623047" rx="2.7006843" ry="1.5502937"/>
<path fill="#FC0282" d="M159.3193359,8.5639648c-1.9404297,0.1118164-3.4814453,0.7714844-3.4384766,1.4794922
	c0.0390625,0.7075195,1.6425781,1.1914063,3.5820313,1.081543c1.9355469-0.1083984,3.4775391-0.7749023,3.4375-1.480957
	C162.859375,8.9365234,161.2587891,8.4550781,159.3193359,8.5639648z"/>
<path fill="#FC0282" d="M151.8945313,6.8178711c-2.5214844,0.078125-4.5551758,0.5302734-4.5366211,1.0126953
	c0.0131836,0.4824219,2.0673828,0.8115234,4.5874023,0.734375c2.515625-0.0761719,4.5488281-0.53125,4.5351563-1.0136719
	C156.4638672,7.0688477,154.4160156,6.7416992,151.8945313,6.8178711z"/>
<path fill="#FC0282" d="M145.40625,5.3823242c-2.9487305,0.0537109-5.3378906,0.3549805-5.328125,0.6757813
	c0.0048828,0.3198242,2.3989258,0.5366211,5.3461914,0.4838867c2.9428711-0.0522461,5.3305664-0.3554688,5.3251953-0.6757813
	C150.7421875,5.5458984,148.355957,5.3305664,145.40625,5.3823242z"/>
<path fill="#FC0282" d="M139.5688477,3.9238281c-2.9482422,0.0727539-5.3349609,0.3896484-5.3232422,0.7104492
	c0.0068359,0.3193359,2.4023438,0.5209961,5.3486328,0.4492188c2.9423828-0.0712891,5.328125-0.3896484,5.3212891-0.7099609
	C144.9057617,4.0532227,142.5170898,3.8535156,139.5688477,3.9238281z"/>
<path fill="#FC0282" d="M134.9946289,3.3417969c-2.9487305,0.0009766-5.3422852,0.1757813-5.3388672,0.3916016
	C129.6547852,3.9492188,132.0449219,4.125,134.9916992,4.125c2.9438477,0,5.3359375-0.1757813,5.3369141-0.3916016
	C140.3271484,3.5166016,137.9443359,3.3427734,134.9946289,3.3417969z"/>
<path fill="#FC0282" d="M172.9414063,13.6245117c-0.5263672,0.6962891-0.1728516,1.8583984,0.7998047,2.5986328
	c0.9736328,0.7416992,2.1904297,0.7807617,2.71875,0.0874023c0.5322266-0.6914063,0.1699219-1.8603516-0.8017578-2.6005859
	C174.6875,12.9667969,173.4736328,12.9316406,172.9414063,13.6245117z"/>
<path fill="#FC0282" d="M180.3027344,16.1503906c-0.453125,0.5126953,0.1142578,1.7734375,1.2832031,2.8203125
	c1.1699219,1.0498047,2.4863281,1.4853516,2.9423828,0.9765625c0.4619141-0.5078125-0.1171875-1.7763672-1.2841797-2.8242188
	C182.078125,16.0742188,180.7636719,15.6425781,180.3027344,16.1503906z"/>
<path fill="#FC0282" d="M187.7382813,19.0615234c-0.4140625,0.4423828,0.2011719,1.7128906,1.3886719,2.8457031
	c1.1914063,1.1347656,2.4902344,1.6962891,2.9072266,1.2578125c0.4238281-0.4365234-0.2021484-1.7167969-1.3886719-2.8486328
	C189.4589844,19.1816406,188.1611328,18.625,187.7382813,19.0615234z"/>
<path fill="#FC0282" d="M194.4648438,22.1674805c-0.3115234,0.34375,0.4726563,1.5874023,1.7626953,2.784668
	c1.2958984,1.2001953,2.5947266,1.8945313,2.9091797,1.5541992c0.3212891-0.3374023-0.4736328-1.5908203-1.7646484-2.7875977
	C196.0810547,22.5195313,194.7841797,21.8300781,194.4648438,22.1674805z"/>
<path fill="#FC0282" d="M200.4482422,25.0561523c-0.2177734,0.2431641,0.6914063,1.4472656,2.0419922,2.6958008
	c1.3554688,1.2519531,2.6269531,2.0693359,2.8476563,1.8291016c0.2285156-0.2363281-0.6923828-1.4501953-2.0429688-2.6982422
	C201.9423828,25.6318359,200.6738281,24.8193359,200.4482422,25.0561523z"/>
<path fill="#FC0282" d="M205.7851563,28.3046875c-0.1669922,0.2070313,1.0429688,1.5219727,2.7148438,2.9458008
	c1.6777344,1.4282227,3.171875,2.4165039,3.34375,2.2133789c0.1806641-0.1987305-1.0429688-1.5258789-2.7158203-2.9487305
	C207.4511719,29.0888672,205.9628906,28.1044922,205.7851563,28.3046875z"/>
<ellipse transform="matrix(0.163654 -0.9865178 0.9865178 0.163654 130.4490967 172.6690369)" fill="#FC0282" cx="167.0610352" cy="9.3984375" rx="0.8503315" ry="2.4192715"/>
<ellipse transform="matrix(0.2553785 -0.9668412 0.9668412 0.2553785 117.3961792 174.266037)" fill="#FC0282" cx="171.8344727" cy="10.9174805" rx="0.6787568" ry="1.7237953"/>
<ellipse transform="matrix(0.3791916 -0.9253182 0.9253182 0.3791916 97.949173 171.7525635)" fill="#FC0282" cx="176.9736328" cy="12.8793945" rx="0.6464204" ry="1.8834698"/>
<ellipse transform="matrix(0.5160559 -0.8565549 0.8565549 0.5160559 75.3436432 162.9596558)" fill="#FC0282" cx="181.8867188" cy="14.8027344" rx="0.5979851" ry="2.1684353"/>
<ellipse transform="matrix(0.5070719 -0.8619038 0.8619038 0.5070719 77.6268921 169.8561859)" fill="#FC0282" cx="187.3134766" cy="17.0612793" rx="0.4121395" ry="2.7466702"/>
<path fill="#FC0282" d="M193.2011719,19.7255859C191.8974609,18.8398438,190.75,18.25,190.640625,18.4150391
	c-0.109375,0.1621094,0.8554688,1.0126953,2.1572266,1.8984375c1.2998047,0.8857422,2.4521484,1.4746094,2.5595703,1.3134766
	C195.46875,21.4628906,194.5039063,20.6142578,193.2011719,19.7255859z"/>
<ellipse transform="matrix(0.1897811 -0.9818264 0.9818264 0.1897811 123.5522232 165.1741791)" fill="#FC0282" cx="161.8554688" cy="7.7265625" rx="0.5042818" ry="2.2642581"/>
<path fill="#FC0282" d="M156.4238281,5.9213867c-1.6894531-0.1708984-3.0810547-0.090332-3.1064453,0.1884766
	c-0.0283203,0.2749023,1.3144531,0.6401367,2.9970703,0.8149414C158,7.0986328,159.3955078,7.0146484,159.4228516,6.7387695
	C159.4521484,6.4609375,158.1103516,6.0966797,156.4238281,5.9213867z"/>
<g>
	<path fill="#FF0083" d="M114.96875,126.0966797v7.125h-6.2109375c-0.84375,0-1.4414063,0.125-1.7929688,0.375
		s-0.5273438,0.671875-0.5273438,1.265625c0,0.671875,0.1796875,1.1132813,0.5390625,1.3242188
		s1.09375,0.3164063,2.203125,0.3164063h6.3984375v9.140625h-7.4765625c-3.515625,0-6.203125-0.8398438-8.0625-2.5195313
		S97.25,139.0185547,97.25,135.8466797v-12.5390625c0-3.0625,0.8789063-5.4375,2.6367188-7.125s4.2304688-2.53125,7.4179688-2.53125
		h8.2734375v9.1875h-6.0703125c-1.640625,0-2.4609375,0.53125-2.4609375,1.59375c0,0.625,0.1953125,1.0585938,0.5859375,1.3007813
		s1.0859375,0.3632813,2.0859375,0.3632813H114.96875z"/>
	<path fill="#FF0083" d="M144.03125,113.6513672l-13.9453125,33.8203125l-13.8515625-33.8203125H127.25l2.9296875,9.984375
		l3.234375-9.984375H144.03125z"/>
	<path fill="#FF0083" d="M163.1796875,126.0966797v7.125H156.96875c-0.84375,0-1.4414063,0.125-1.7929688,0.375
		s-0.5273438,0.671875-0.5273438,1.265625c0,0.671875,0.1796875,1.1132813,0.5390625,1.3242188
		s1.09375,0.3164063,2.203125,0.3164063h6.3984375v9.140625H156.3125c-3.515625,0-6.203125-0.8398438-8.0625-2.5195313
		s-2.7890625-4.1054688-2.7890625-7.2773438v-12.5390625c0-3.0625,0.8789063-5.4375,2.6367188-7.125
		s4.2304688-2.53125,7.4179688-2.53125h8.2734375v9.1875H157.71875c-1.640625,0-2.4609375,0.53125-2.4609375,1.59375
		c0,0.625,0.1953125,1.0585938,0.5859375,1.3007813s1.0859375,0.3632813,2.0859375,0.3632813H163.1796875z"/>
	<path fill="#FF0083" d="M168.59375,145.6435547v-20.765625c0-3.640625,1.0898438-6.5546875,3.2695313-8.7421875
		s5.0820313-3.28125,8.7070313-3.28125c3.609375,0,6.3710938,1.0625,8.2851563,3.1875s2.8710938,5.1796875,2.8710938,9.1640625
		v20.4375h-9.515625v-20.4375c0-1.953125-0.6953125-2.9296875-2.0859375-2.9296875
		c-1.34375,0-2.015625,0.9765625-2.015625,2.9296875v20.4375H168.59375z"/>
	<path fill="#FF0083" d="M211.4375,122.8388672v22.8046875h-9.515625v-22.8046875h-7.2890625v-9.1875h24.0703125v9.1875H211.4375z"
		/>
	<path fill="#FF0083" d="M237.2421875,113.5107422v9.1171875c-0.6875-0.234375-1.21875-0.3515625-1.59375-0.3515625
		c-0.71875,0-1.3359375,0.265625-1.8515625,0.796875s-0.7734375,1.171875-0.7734375,1.921875
		c0,0.640625,0.28125,1.453125,0.84375,2.4375l0.7265625,1.265625c1.3125,2.28125,1.96875,4.484375,1.96875,6.609375
		c0,3.109375-1.1054688,5.7421875-3.3164063,7.8984375s-4.9101563,3.234375-8.0976563,3.234375
		c-1.53125,0-3.046875-0.3515625-4.546875-1.0546875v-9.2578125c0.90625,0.578125,1.7109375,0.8671875,2.4140625,0.8671875
		c0.828125,0,1.5195313-0.2382813,2.0742188-0.7148438s0.8320313-1.0742188,0.8320313-1.7929688
		c0-0.46875-0.4453125-1.4921875-1.3359375-3.0703125c-1.421875-2.5-2.1328125-5-2.1328125-7.5
		c0-3.015625,1.0742188-5.6132813,3.2226563-7.7929688s4.7148438-3.2695313,7.6992188-3.2695313
		C234.6875,112.8544922,235.9765625,113.0732422,237.2421875,113.5107422z"/>
	<path fill="#FF0083" d="M259.1328125,126.0966797v7.125h-6.2109375c-0.84375,0-1.4414063,0.125-1.7929688,0.375
		s-0.5273438,0.671875-0.5273438,1.265625c0,0.671875,0.1796875,1.1132813,0.5390625,1.3242188
		s1.09375,0.3164063,2.203125,0.3164063h6.3984375v9.140625h-7.4765625c-3.515625,0-6.203125-0.8398438-8.0625-2.5195313
		s-2.7890625-4.1054688-2.7890625-7.2773438v-12.5390625c0-3.0625,0.8789063-5.4375,2.6367188-7.125
		s4.2304688-2.53125,7.4179688-2.53125h8.2734375v9.1875h-6.0703125c-1.640625,0-2.4609375,0.53125-2.4609375,1.59375
		c0,0.625,0.1953125,1.0585938,0.5859375,1.3007813s1.0859375,0.3632813,2.0859375,0.3632813H259.1328125z"/>
</g>
</svg>
