<svg xmlns:dc="http://purl.org/dc/elements/1.1/" xmlns:cc="http://creativecommons.org/ns#" xmlns:rdf="http://www.w3.org/1999/02/22-rdf-syntax-ns#" xmlns:svg="http://www.w3.org/2000/svg" xmlns="http://www.w3.org/2000/svg" id="svg312998" viewBox="0 0 1024 768" height="768px" width="1024px" version="1.1">
  <metadata id="metadata313004">
    <rdf:rdf>
      <cc:work rdf:about="">
        <dc:format>image/svg+xml</dc:format>
        <dc:type rdf:resource="http://purl.org/dc/dcmitype/StillImage"></dc:type>
      </cc:work>
    </rdf:rdf>
  </metadata>
  <defs id="defs313002"></defs>
  <g id="logo-group">
    <g id="title" style="font-style:normal;font-weight:800;font-size:72px;line-height:1;font-family:'Montserrat ExtraBold Alt1';font-variant-ligatures:none;text-align:center;text-anchor:middle" aria-label="myevents">
      <path id="path313006" style="font-style: normal; font-weight: 800; font-size: 72px; line-height: 1; font-family: &quot;Montserrat ExtraBold Alt1&quot;; font-variant-ligatures: none; text-align: center; text-anchor: middle; fill: rgb(249, 207, 217);" d="m 391.21888,84.648 c -2.88,-2.88 -6.69601,-4.32 -11.44801,-4.32 -2.808,0 -5.4,0.576 -7.704,1.584 -2.376,1.08 -4.32,2.592 -5.832,4.536 -1.368,-2.016 -3.096,-3.6 -5.25599,-4.608 -2.16001,-1.008 -4.60801,-1.512 -7.344,-1.512 -2.37601,0 -4.536,0.432 -6.55201,1.224 -2.016,0.792 -3.672,1.944 -5.112,3.528 v -4.104 h -13.032 V 120 h 13.68 v -19.368 c 0,-2.88 0.57601,-5.112 1.87201,-6.552 1.22399,-1.44 2.87999,-2.16 5.03999,-2.16 3.88801,0 5.904,2.664 5.904,7.992 V 120 h 13.68 v -19.368 c 0,-2.88 0.576,-5.112 1.872,-6.552 1.224,-1.44 2.88,-2.16 4.96801,-2.16 1.87199,0 3.312,0.648 4.31999,1.944 1.008,1.296 1.584,3.312 1.584,6.048 V 120 h 13.68001 V 97.68 c 0,-5.76 -1.44,-10.152 -4.32,-13.032 z" transform="translate(0 273.12711334152203) translate(251.99999999999994 81.12559620555125) scale(1.2870928717950307) translate(-328.93887 -80.328)"></path>
      <path id="path313008" style="font-style: normal; font-weight: 800; font-size: 72px; line-height: 1; font-family: &quot;Montserrat ExtraBold Alt1&quot;; font-variant-ligatures: none; text-align: center; text-anchor: middle; fill: rgb(249, 207, 217);" d="m 444.58213,80.976 h -13.03201 l -9.648,23.832 -9.576,-23.832 h -14.03999 l 16.70399,39.528 c -0.57599,1.152 -1.296,2.016 -2.16,2.52 -0.864,0.576 -1.872,0.792 -3.168,0.792 -1.15199,0 -2.232,-0.144 -3.312,-0.576 -1.08,-0.432 -2.016,-1.008 -2.736,-1.728 l -4.752,9.576 c 1.296,1.08 2.952,1.944 5.04,2.592 2.088,0.648 4.176,0.936 6.26401,0.936 4.03199,0 7.488,-0.936 10.368,-2.88 2.80799,-1.944 5.18399,-5.328 7.19999,-10.152 z" transform="translate(0 273.12711334152203) translate(347.6918283834918 81.95963238647441) scale(1.2870928717950307) translate(-398.28613 -80.976)"></path>
      <path id="path313010" style="font-style: normal; font-weight: 800; font-size: 72px; line-height: 1; font-family: &quot;Montserrat ExtraBold Alt1&quot;; font-variant-ligatures: none; text-align: center; text-anchor: middle; fill: rgb(249, 207, 217);" d="m 486.59525,103.944 c 0.144,-2.16 0.216,-3.24 0.216,-3.384 0,-4.176 -0.936,-7.776 -2.808,-10.8 -1.872,-3.024 -4.32,-5.4 -7.488,-6.984 -3.168,-1.584 -6.696,-2.448 -10.584,-2.448 -4.104,0 -7.776,0.864 -11.016,2.592 -3.312,1.728 -5.832,4.176 -7.704,7.2 -1.872,3.024 -2.736,6.48 -2.736,10.296 0,3.888 0.936,7.416 2.808,10.44 1.872,3.096 4.608,5.472 8.064,7.2 3.456,1.728 7.416,2.592 12.024,2.592 7.272,0 12.816,-2.088 16.632,-6.336 l -7.2,-7.488 c -1.44,1.224 -2.808,2.088 -4.176,2.592 -1.368,0.576 -2.952,0.792 -4.824,0.792 -2.52,0 -4.608,-0.504 -6.264,-1.584 -1.656,-1.08 -2.736,-2.664 -3.312,-4.68 z m -25.92,-12.096 c 1.44,-1.152 3.168,-1.8 5.328,-1.8 2.088,0 3.816,0.648 5.256,1.8 1.44,1.224 2.304,2.88 2.736,4.896 h -15.984 c 0.36,-2.016 1.224,-3.672 2.664,-4.896 z" transform="translate(0 273.12711334152203) translate(413.57697984895225 81.12559620555125) scale(1.2870928717950307) translate(-444.47525 -80.328)"></path>
      <path id="path313012" style="font-style: normal; font-weight: 800; font-size: 72px; line-height: 1; font-family: &quot;Montserrat ExtraBold Alt1&quot;; font-variant-ligatures: none; text-align: center; text-anchor: middle; fill: rgb(249, 207, 217);" d="m 533.59775,80.976 h -13.032 l -9.864,23.832 -9.36,-23.832 h -14.04 l 16.056,39.024 h 14.112 z" transform="translate(0 273.12711334152203) translate(475.1341270818573 81.95963238647441) scale(1.2870928717950307) translate(-487.30175 -80.976)"></path>
      <path id="path313014" style="font-style: normal; font-weight: 800; font-size: 72px; line-height: 1; font-family: &quot;Montserrat ExtraBold Alt1&quot;; font-variant-ligatures: none; text-align: center; text-anchor: middle; fill: rgb(249, 207, 217);" d="m 575.61087,103.944 c 0.144,-2.16 0.216,-3.24 0.216,-3.384 0,-4.176 -0.93599,-7.776 -2.808,-10.8 -1.87199,-3.024 -4.31999,-5.4 -7.48799,-6.984 -3.168,-1.584 -6.69601,-2.448 -10.58401,-2.448 -4.10399,0 -7.77599,0.864 -11.01599,2.592 -3.31201,1.728 -5.832,4.176 -7.70401,7.2 -1.872,3.024 -2.736,6.48 -2.736,10.296 0,3.888 0.936,7.416 2.808,10.44 1.87201,3.096 4.60801,5.472 8.06401,7.2 3.456,1.728 7.41599,2.592 12.024,2.592 7.27199,0 12.81599,-2.088 16.63199,-6.336 l -7.19999,-7.488 c -1.44001,1.224 -2.80801,2.088 -4.17601,2.592 -1.368,0.576 -2.952,0.792 -4.82399,0.792 -2.52001,0 -4.60801,-0.504 -6.264,-1.584 -1.65601,-1.08 -2.736,-2.664 -3.312,-4.68 z m -25.92,-12.096 c 1.44001,-1.152 3.168,-1.8 5.328,-1.8 2.088,0 3.816,0.648 5.256,1.8 1.44,1.224 2.30401,2.88 2.736,4.896 h -15.98399 c 0.36,-2.016 1.22399,-3.672 2.66399,-4.896 z" transform="translate(0 273.12711334152203) translate(541.0192785473176 81.12559620555125) scale(1.2870928717950307) translate(-533.49087 -80.328)"></path>
      <path id="path313016" style="font-style: normal; font-weight: 800; font-size: 72px; line-height: 1; font-family: &quot;Montserrat ExtraBold Alt1&quot;; font-variant-ligatures: none; text-align: center; text-anchor: middle; fill: rgb(249, 207, 217);" d="m 619.2845,84.648 c -2.952,-2.88 -6.84,-4.32 -11.664,-4.32 -2.52,0 -4.824,0.432 -6.912,1.296 -2.16,0.864 -3.96,2.016 -5.472,3.6 v -4.248 h -13.032 V 120 h 13.68 v -18.864 c 0,-3.024 0.648,-5.328 2.088,-6.912 1.44,-1.512 3.312,-2.304 5.688,-2.304 4.248,0 6.408,2.664 6.408,7.992 V 120 h 13.68 V 97.68 c 0,-5.76 -1.512,-10.152 -4.464,-13.032 z" transform="translate(0 273.12711334152203) translate(610.1537088385535 81.12559620555125) scale(1.2870928717950307) translate(-582.2045 -80.328)"></path>
      <path id="path313018" style="font-style: normal; font-weight: 800; font-size: 72px; line-height: 1; font-family: &quot;Montserrat ExtraBold Alt1&quot;; font-variant-ligatures: none; text-align: center; text-anchor: middle; fill: rgb(249, 207, 217);" d="m 659.195,118.416 -3.384,-9.576 c -1.224,0.864 -2.592,1.224 -4.176,1.224 -1.296,0 -2.304,-0.36 -3.024,-1.152 -0.72,-0.792 -1.08,-1.872 -1.08,-3.312 V 92.64 h 8.928 V 82.416 h -8.928 V 72.264 h -13.68 v 10.152 h -5.688 V 92.64 h 5.688 v 13.104 c 0,4.968 1.368,8.712 4.104,11.16 2.736,2.52 6.624,3.744 11.736,3.744 1.872,0 3.6,-0.144 5.256,-0.576 1.656,-0.36 3.096,-0.936 4.248,-1.656 z" transform="translate(0 273.12711334152203) translate(675.7420309459205 70.7464792873961) scale(1.2870928717950307) translate(-628.163 -72.264)"></path>
      <path id="path313020" style="font-style: normal; font-weight: 800; font-size: 72px; line-height: 1; font-family: &quot;Montserrat ExtraBold Alt1&quot;; font-variant-ligatures: none; text-align: center; text-anchor: middle; fill: rgb(249, 207, 217);" d="m 669.00612,119.568 c 3.168,0.72 6.336,1.08 9.64801,1.08 4.03199,0 7.55999,-0.504 10.43999,-1.656 2.88,-1.08 5.11201,-2.592 6.624,-4.536 1.44001,-1.944 2.232,-4.176 2.232,-6.624 0,-2.952 -0.79199,-5.256 -2.376,-6.912 -1.58399,-1.656 -3.384,-2.808 -5.472,-3.456 -2.15999,-0.576 -4.82399,-1.152 -7.99199,-1.656 -2.592,-0.36 -4.39201,-0.72 -5.47201,-1.08 -1.15199,-0.36 -1.656,-1.008 -1.656,-1.944 0,-0.792 0.50401,-1.44 1.51201,-1.944 1.00799,-0.504 2.592,-0.792 4.75199,-0.792 4.03201,0 7.776,1.008 11.232,2.88 l 4.10401,-9.288 c -1.87201,-1.008 -4.24801,-1.872 -6.98401,-2.448 -2.808,-0.576 -5.616,-0.864 -8.424,-0.864 -4.032,0 -7.416,0.576 -10.296,1.728 -2.88,1.152 -5.04,2.664 -6.47999,4.608 -1.51201,1.944 -2.23201,4.176 -2.23201,6.624 0,3.024 0.792,5.4 2.37601,7.056 1.58399,1.728 3.45599,2.88 5.616,3.456 2.15999,0.648 4.82399,1.152 7.99199,1.512 2.448,0.36 4.17601,0.72 5.328,1.08 1.15201,0.36 1.72801,0.936 1.72801,1.8 0,0.864 -0.504,1.584 -1.44001,2.016 -0.936,0.432 -2.52,0.648 -4.67999,0.648 -2.44801,0 -4.82401,-0.288 -7.27201,-0.936 -2.448,-0.648 -4.60799,-1.512 -6.336,-2.664 l -4.10399,9.36 c 1.87199,1.224 4.46399,2.232 7.63199,2.952 z" transform="translate(0 273.12711334152203) translate(724.9233039921538 81.12559620555125) scale(1.2870928717950307) translate(-661.37413 -80.328)"></path>
    </g>
    <g id="tagline" style="font-style:normal;font-weight:500;font-size:32px;line-height:1;font-family:Montserrat;font-variant-ligatures:none;text-align:center;text-anchor:middle"></g>
  </g>
</svg>